<?xml version="1.0" encoding="utf-8"?>
<!-- Generator: Adobe Illustrator 22.0.1, SVG Export Plug-In . SVG Version: 6.00 Build 0)  -->
<svg version="1.1" name="layer" xmlns="http://www.w3.org/2000/svg" xmlns:xlink="http://www.w3.org/1999/xlink" x="0px" y="0px"
	 viewBox="0 0 111.5 171.9" style="enable-background:new 0 0 111.5 171.9;" xml:space="preserve">
<g name="bulb">
	<g name="selected" style="opacity:0;">
		<path name="selectedPath" style="fill:#FFFFFF;stroke:#33BBFF;stroke-width:5;stroke-miterlimit:10;" d="M80.3,124.7L80.3,124.7
			c2.9,0,5.4-3.2,5.4-6.2c0-13,23.7-28.6,23.7-62c0-25.3-17.3-48.1-40.7-54.6l0,0l0,0h-0.1c-0.1,0-0.1,0-0.2-0.1
			c-0.7-0.2-1.5-0.4-2.2-0.6c-0.1-0.1-0.3-0.1-0.5-0.1c-0.8-0.1-1.5-0.3-2.3-0.4c-0.1,0-0.3-0.1-0.4-0.1c-0.7-0.1-1.5-0.2-2.2-0.3
			c-0.1,0-0.3,0-0.3-0.1C59.7,0.1,58.9,0.1,58,0c-0.2,0-0.4,0-0.6,0c-0.9,0-1.7,0-2.4,0c0.1,0,0.1,0,0.2,0h-0.5c0.1,0,0.1,0,0.2,0
			C25,0.1,0.7,26.5,0.7,56.5c0,33.3,23.7,49,23.7,61.9c0,3,2.5,6.2,5.5,6.2c-3,0-5.5,2.5-5.5,5.5v1v7v7.3v7v0.8c0,3,2.5,5.5,5.5,5.5
			h14.4c0,5.8,4.7,10.6,10.6,10.6c5.8,0,10.6-4.7,10.6-10.6h15.1c3,0,5.5-2.4,5.5-5.5v-0.8v-7v-7.3v-7v-1
			C85.8,127.1,83.3,124.7,80.3,124.7z"/>
	</g>
	<g name="body">
		<path style="fill:#B1B7C6;" d="M85.8,153.1c0,3-2.4,5.5-5.5,5.5H29.8c-3,0-5.5-2.4-5.5-5.5v-23c0-3,2.5-5.5,5.5-5.5h50.5
			c3,0,5.5,2.4,5.5,5.5V153.1z"/>
		<path style="fill:#8B93A1;" d="M44.2,158.6c0,5.8,4.7,10.6,10.6,10.6c5.8,0,10.6-4.7,10.6-10.6"/>
		<path style="fill:#F5A500;" d="M80.2,124.7c3,0,5.5-3.2,5.5-6.2c0-13,23.7-28.6,23.7-62C109.2,26.4,84.9,0,54.8,0h0.5
			C25.2,0,0.7,26.4,0.7,56.5c0,33.3,23.7,49,23.7,61.9c0,3,2.5,6.2,5.5,6.2"/>
		<path style="fill:#FFCA00;" d="M0.7,56.5c0,33.3,23.7,49,23.7,61.9c2.2,2.1,2.6,2.4,7.4,2.4s25.3,0,33.5,0c8.3,0,7.3-3.8,7.3-6.4
			s0-3.8,1.9-8.6s12.8-14.3,19.6-35.6c9-28.1-3.1-55.4-25.7-68.4l0,0C64.1,0.6,59.5,0,54.8,0h0.5C25.2,0,0.7,26.4,0.7,56.5"/>
		<circle style="fill:#FFE568;" cx="37.8" cy="31.4" r="16.7"/>
		<rect x="24.4" y="131" style="fill:#8B93A1;" width="61.4" height="7"/>
		<rect x="24.4" y="145.2" style="fill:#8B93A1;" width="61.4" height="7"/>
		<path style="fill:#D9DADC;" d="M51.2,127.9c0,1.8-1.5,3.2-3.2,3.2H36.2c-1.8,0-3.2-1.5-3.2-3.2l0,0c0-1.8,1.5-3.2,3.2-3.2H48
			C49.8,124.7,51.2,126.1,51.2,127.9L51.2,127.9z"/>
		<path style="fill:#D9DADC;" d="M45.8,141.6c0,1.8-1.5,3.2-3.2,3.2h-6.4c-1.8,0-3.2-1.5-3.2-3.2l0,0c0-1.8,1.5-3.2,3.2-3.2h6.4
			C44.3,138.4,45.8,139.8,45.8,141.6L45.8,141.6z"/>
	</g>
	<g name="select" style="opacity:0;">
		<path name="selectPath" style="fill:#FFFFFF;" d="M80.3,124.7L80.3,124.7c2.9,0,5.4-3.2,5.4-6.2c0-13,23.7-28.6,23.7-62
			c0-25.3-17.3-48.1-40.7-54.6l0,0l0,0h-0.1c-0.1,0-0.1,0-0.2-0.1c-0.7-0.2-1.5-0.4-2.2-0.6c-0.1-0.1-0.3-0.1-0.5-0.1
			c-0.8-0.1-1.5-0.3-2.3-0.4c-0.1,0-0.3-0.1-0.4-0.1c-0.7-0.1-1.5-0.2-2.2-0.3c-0.1,0-0.3,0-0.3-0.1C59.7,0.1,58.9,0.1,58,0
			c-0.2,0-0.4,0-0.6,0c-0.9,0-1.7,0-2.4,0c0.1,0,0.1,0,0.2,0h-0.5c0.1,0,0.1,0,0.2,0C25,0.1,0.7,26.5,0.7,56.5
			c0,33.3,23.7,49,23.7,61.9c0,3,2.5,6.2,5.5,6.2c-3,0-5.5,2.5-5.5,5.5v1v7v7.3v7v0.8c0,3,2.5,5.5,5.5,5.5h14.4
			c0,5.8,4.7,10.6,10.6,10.6c5.8,0,10.6-4.7,10.6-10.6h15.1c3,0,5.5-2.4,5.5-5.5v-0.8v-7v-7.3v-7v-1
			C85.8,127.1,83.3,124.7,80.3,124.7z"/>
	</g>
</g>
</svg>
