<?xml version="1.0" encoding="utf-8"?>
<!-- Generator: Adobe Illustrator 22.0.1, SVG Export Plug-In . SVG Version: 6.00 Build 0)  -->
<svg version="1.1" name="layer" xmlns="http://www.w3.org/2000/svg" xmlns:xlink="http://www.w3.org/1999/xlink" x="0px" y="0px"
	 viewBox="0 0 131.9 114" style="enable-background:new 0 0 131.9 114;" xml:space="preserve">
<g name="photocell">
	<g name="selected" style="opacity:0;">
		<path name="selectedPath" style="fill:#FFFFFF;stroke:#33BBFF;stroke-width:5;" d="M127.8,84.8C127.7,84.8,127.7,84.8,127.8,84.8
			c-0.1,0-0.1,0-0.1,0l-18.4,0l0-2.5c0-1.9-2.1-3.4-4.6-3.4l-0.3,0v0l-2.5,0l-0.4,0c-1.6,0-3,0.6-3.8,1.5h-2.1v0l-0.2,0l-6.6,0v0
			l0,0l-11.6,0C76.4,79.5,75,79,73.4,79l-3.1,0c0,0,0,0,0,0l-0.2,0v0c-2.5,0.1-4.4,1.5-4.4,3.4v2.5l-17.6,0V70.7
			c6.7-0.3,10.7-0.9,12-1.1c0.3,0,2.9-0.4,5.8-3.2c0.9-0.9,1.8-1.9,2.5-3c0.2-0.2,0.3-0.5,0.5-0.7c0.9-1.2,1.7-2.7,2.4-4.2
			c2.6-5.4,4.2-13.5,4.2-21.5c0-6.2-0.7-11.6-1.9-16.1C69.9,4.7,60.3,3.5,59.9,3.4c-1.9-0.3-9.3-1.4-22.3-1.4
			c-13.1,0-20.4,1-22.4,1.4c-0.6,0.1-2.9,0.6-5.5,3C8.8,7.3,8,8.3,7.3,9.4C5.6,12,3.2,16.3,1.7,22.8c-1.2,4.3-1.9,9.1-1.9,14.1
			c0,28.1,14.8,32.6,15,32.7l0.2,0c1.3,0.2,5.3,0.8,12,1.1v41c0,1.1,0.9,2,2,2c1.1,0,2-0.9,2-2V70.9c2,0.1,4.1,0.1,6.5,0.1
			c2.4,0,4.5,0,6.5-0.1v40.8c0,1.1,0.9,2,2,2c1.1,0,2-0.9,2-2V89.1l17.6,0v2.5c0,1.8,2,3.3,4.4,3.4v0l0.1,0c0,0,0,0,0.1,0h1.2l1.2,0
			v0h0.8c1.6,0,3-0.6,3.8-1.5l20.5,0c0.8,0.9,2.2,1.5,3.8,1.5l0.3,0v0l2.6,0v0l0.3,0c2.6,0,4.6-1.5,4.6-3.4l0-2.5l16.5,0v22.6
			c0,1.1,0.9,2,2,2s2-0.9,2-2V86.8C129.8,85.7,128.8,84.8,127.8,84.8z"/>
	</g>
	<g name="body">
		<g name="pin_1_">
			<path style="fill:#9FA0A0;" d="M29.1,113.7c-1.1,0-2-0.9-2-2V63.9c0-1.1,0.9-2,2-2s2,0.9,2,2v47.8
				C31.1,112.8,30.2,113.7,29.1,113.7z"/>
			<path style="fill:#9FA0A0;" d="M46.1,113.7c-1.1,0-2-0.9-2-2V63.9c0-1.1,0.9-2,2-2s2,0.9,2,2v47.8
				C48.1,112.8,47.2,113.7,46.1,113.7z"/>
		</g>
		<path name="path_244_" style="fill:#852725;" d="M73.4,20.8C69.9,4.7,60.3,3.5,59.9,3.4c-1.9-0.3-9.3-1.4-22.3-1.4
			c-13.1,0-20.4,1-22.4,1.4c-0.6,0.1-2.9,0.6-5.5,3C8.8,7.3,8,8.3,7.3,9.4C5.6,12,3.2,16.3,1.7,22.8c-1.2,4.3-1.9,9.1-1.9,14.1
			c0,28.1,14.8,32.6,15,32.7l0.2,0c1.9,0.3,9.3,1.4,22.5,1.4c13.2,0,20.6-1.1,22.5-1.4c0.3,0,2.9-0.4,5.8-3.2c0.9-0.9,1.8-1.9,2.5-3
			c0.2-0.2,0.3-0.5,0.5-0.7c0.9-1.2,1.7-2.7,2.4-4.2c2.6-5.4,4.2-13.5,4.2-21.5C75.3,30.7,74.7,25.3,73.4,20.8z"/>
		<path name="path_243_" style="fill:#E5E5E5;" d="M72.5,34.1c0,13.3-4.2,20.5-7.1,24.3c-1,1.3-1.9,2.2-2.8,2.8c-1.7,1.3-3,1.5-3,1.5
			S52.3,64,37.6,64c-14.7,0-22.1-1.4-22.1-1.4S2.7,59.9,2.7,34.1c0-13.4,4.1-20.5,6.9-24.3c0.9-1.3,1.9-2.2,2.7-2.8
			c1.8-1.3,3.1-1.5,3.1-1.5s7.4-1.4,22.1-1.4c14.7,0,22.1,1.4,22.1,1.4S72.5,6.8,72.5,34.1z"/>
		<path name="path_240_" style="fill:#939393;" d="M9.4,34.1c0,1.3-1.1,2.4-2.4,2.4c-1.3,0-2.4-1.1-2.4-2.4c0-1.3,1.1-2.4,2.4-2.4
			C8.4,31.7,9.4,32.8,9.4,34.1z"/>
		<path name="path_239_" style="fill:#939393;" d="M70.5,34.1c0,1.3-1.1,2.4-2.4,2.4c-1.3,0-2.4-1.1-2.4-2.4c0-1.3,1.1-2.4,2.4-2.4
			C69.4,31.7,70.5,32.8,70.5,34.1z"/>
		<path name="path_237_" style="fill:#852725;" d="M12.3,7h39.2c3.1,0,5.7,2.6,5.7,5.7c0,3.1-2.5,5.7-5.7,5.7H23.6
			c-1.6,0-2.9,1.3-2.9,2.9c0,1.6,1.3,2.9,2.9,2.9h27.9c3.1,0,5.7,2.6,5.7,5.7c0,3.1-2.5,5.7-5.7,5.7H23.6c-1.6,0-2.9,1.3-2.9,2.9
			c0,1.6,1.3,2.9,2.9,2.9h27.9c3.1,0,5.7,2.6,5.7,5.7c0,3.1-2.5,5.7-5.7,5.7H23.6c-1.6,0-2.9,1.3-2.9,2.9c0,1.6,1.3,2.9,2.9,2.9
			h41.8c-1,1.3-1.9,2.2-2.8,2.8H23.6c-3.1,0-5.7-2.5-5.7-5.7c0-3.1,2.5-5.7,5.7-5.7h27.9c1.6,0,2.9-1.3,2.9-2.9
			c0-1.6-1.3-2.9-2.9-2.9H23.6c-3.1,0-5.7-2.5-5.7-5.7c0-3.1,2.5-5.7,5.7-5.7h27.9c1.6,0,2.9-1.3,2.9-2.9c0-1.6-1.3-2.9-2.9-2.9
			H23.6c-3.1,0-5.7-2.5-5.7-5.7c0-3.1,2.5-5.7,5.7-5.7h27.9c1.6,0,2.9-1.3,2.9-2.9c0-1.6-1.3-2.9-2.9-2.9h-42L12.3,7z"/>
		<path name="path_238_" style="opacity:0.7;fill:#FFFFFF;" d="M58.7,52.3c0,2.5-2.1,4.6-4.6,4.6c-2.5,0-4.6-2.1-4.6-4.6
			c0-2.5,2.1-4.6,4.6-4.6C56.7,47.7,58.7,49.8,58.7,52.3z"/>
		<path name="path_236_" style="opacity:0.7;fill:#FFFFFF;" d="M24.4,15.3c0,4.1-3.3,7.4-7.4,7.4c-4.1,0-7.4-3.3-7.4-7.4
			c0-4.1,3.3-7.4,7.4-7.4C21.1,7.9,24.4,11.2,24.4,15.3z"/>
		<g>
			<g>
				<path style="fill:#9FA0A0;" d="M127.8,84.8C127.7,84.8,127.7,84.8,127.8,84.8c-0.1,0-0.1,0-0.1,0l-80.6,0
					c-1.2,0-2.1,0.9-2.1,2.1c0,1.2,0.9,2.1,2.1,2.1l78.7,0v22.6c0,1.1,0.9,2,2,2s2-0.9,2-2V86.8C129.8,85.7,128.8,84.8,127.8,84.8z"
					/>
				<path style="fill:#3C7BBF;" d="M104.7,79l-3.1,0c-1.6,0-3,0.6-3.8,1.5l-20.5,0C76.4,79.5,75,79,73.4,79l-3.1,0
					c-2.5,0-4.6,1.5-4.6,3.4v9.2c0,1.9,2.1,3.4,4.6,3.4h3.1c1.6,0,3-0.6,3.8-1.5l20.5,0c0.8,0.9,2.2,1.5,3.8,1.5l3.1,0
					c2.6,0,4.6-1.5,4.6-3.4l0-9.2C109.3,80.5,107.2,78.9,104.7,79z"/>
				<g>
					<polygon style="fill:#8B1D22;" points="101.8,79 104.4,78.9 104.4,94.9 101.8,94.9 					"/>
				</g>
				<g>
					<polygon style="fill:#8B1D22;" points="70.1,79 72.6,79 72.6,94.9 70.1,94.9 					"/>
				</g>
				<g>
					
						<rect x="86.3" y="80.5" transform="matrix(1 -2.113075e-03 2.113075e-03 1 -0.1835 0.1852)" style="fill:#113859;" width="2.6" height="13"/>
				</g>
				<g>
					<polygon style="fill:#8B1D22;" points="79.5,80.5 82,80.5 82,93.4 79.5,93.4 					"/>
				</g>
				<g>
					<polygon style="fill:#113859;" points="93.1,80.5 95.6,80.4 95.6,93.4 93.1,93.4 					"/>
				</g>
			</g>
		</g>
	</g>
	<g name="select" style="opacity:0;">
		<path name="selectPath" style="fill:#FFFFFF;" d="M127.8,84.8C127.7,84.8,127.7,84.8,127.8,84.8c-0.1,0-0.1,0-0.1,0l-18.4,0l0-2.5
			c0-1.9-2.1-3.4-4.6-3.4l-0.3,0v0l-2.5,0l-0.4,0c-1.6,0-3,0.6-3.8,1.5h-2.1v0l-0.2,0l-6.6,0v0l0,0l-11.6,0C76.4,79.5,75,79,73.4,79
			l-3.1,0c0,0,0,0,0,0l-0.2,0v0c-2.5,0.1-4.4,1.5-4.4,3.4v2.5l-17.6,0V70.7c6.7-0.3,10.7-0.9,12-1.1c0.3,0,2.9-0.4,5.8-3.2
			c0.9-0.9,1.8-1.9,2.5-3c0.2-0.2,0.3-0.5,0.5-0.7c0.9-1.2,1.7-2.7,2.4-4.2c2.6-5.4,4.2-13.5,4.2-21.5c0-6.2-0.7-11.6-1.9-16.1
			C69.9,4.7,60.3,3.5,59.9,3.4c-1.9-0.3-9.3-1.4-22.3-1.4c-13.1,0-20.4,1-22.4,1.4c-0.6,0.1-2.9,0.6-5.5,3C8.8,7.3,8,8.3,7.3,9.4
			C5.6,12,3.2,16.3,1.7,22.8c-1.2,4.3-1.9,9.1-1.9,14.1c0,28.1,14.8,32.6,15,32.7l0.2,0c1.3,0.2,5.3,0.8,12,1.1v41c0,1.1,0.9,2,2,2
			c1.1,0,2-0.9,2-2V70.9c2,0.1,4.1,0.1,6.5,0.1c2.4,0,4.5,0,6.5-0.1v40.8c0,1.1,0.9,2,2,2c1.1,0,2-0.9,2-2V89.1l17.6,0v2.5
			c0,1.8,2,3.3,4.4,3.4v0l0.1,0c0,0,0,0,0.1,0h1.2l1.2,0v0h0.8c1.6,0,3-0.6,3.8-1.5l20.5,0c0.8,0.9,2.2,1.5,3.8,1.5l0.3,0v0l2.6,0v0
			l0.3,0c2.6,0,4.6-1.5,4.6-3.4l0-2.5l16.5,0v22.6c0,1.1,0.9,2,2,2s2-0.9,2-2V86.8C129.8,85.7,128.8,84.8,127.8,84.8z"/>
	</g>
	<g name="pinGroup" style="opacity:0;">
		<rect name="pin-3v3" x="25.1" y="105.7" style="fill:#E60012;" width="8" height="8"/>
		<rect name="pin-a" x="42.1" y="105.7" style="fill:#E60012;" width="8" height="8"/>
		<rect name="pin-gnd" x="123.9" y="105.7" style="fill:#E60012;" width="8" height="8"/>
	</g>
</g>
</svg>
