<?xml version="1.0" encoding="utf-8"?>
<!-- Generator: Adobe Illustrator 22.0.1, SVG Export Plug-In . SVG Version: 6.00 Build 0)  -->
<svg version="1.1" name="layer" xmlns="http://www.w3.org/2000/svg" xmlns:xlink="http://www.w3.org/1999/xlink" x="0px" y="0px"
	 viewBox="0 0 113.5 177.4" style="enable-background:new 0 0 113.5 177.4;" xml:space="preserve">
<g name="water">
	<g name="selected" style="opacity:0;">
		<path name="selectedPath" style="fill:#FFFFFF;stroke:#33BBFF;stroke-width:5;stroke-miterlimit:10;" d="M49.8-0.1
			C37.4,34.9-4,78.5,0.1,117.8c0.1,1.5,0.3,3,0.6,4.4c-0.1-0.1-0.3-0.1-0.5-0.2c4.5,27.2,26.2,46.8,52.1,47.1c0.2,0,0.5,0,0.7,0
			c0.2,0,0.4,0,0.6,0c12.9-0.1,26.8-4.9,40-16.1C135,113.8,75.5,35.6,49.8-0.1z"/>
	</g>
	<g name="body">
		<g>
			<path style="fill:#60C6D4;" d="M49.8-0.1C37.4,34.9-4,78.5,0.1,117.8c4.1,43.6,52.1,70.2,93.5,35.3C135,113.8,75.5,35.6,49.8-0.1
				z"/>
		</g>
		<g style="opacity:0.8;">
			<path style="fill:#0EA6BB;" d="M96.4,75c-7.9,18.3-22.3,33.3-40.1,41.9c-16.9,8.2-38.5,12.4-56,5.2c6.7,41.1,52.9,64.8,92.9,31
				C113.9,133.4,109.3,103.9,96.4,75z"/>
		</g>
		<path style="fill:#B6EEF2;" d="M38.3,37.5C17.7,61,3.5,102.9,17.1,133.4c3.8,8.5,15.8,1.1,12-7.4c-10.7-24,3.1-60,19.1-78.1
			C54.3,41,44.5,30.6,38.3,37.5z"/>
		<path style="fill:#B6EEF2;" d="M36.6,138c-9,0-9,14.6,0,14.6C45.5,152.6,45.5,138,36.6,138z"/>
	</g>
	<g name="select" style="opacity:0;">
		<path name="selectPath" style="fill:#FFFFFF;" d="M49.8-0.1C37.4,34.9-4,78.5,0.1,117.8c0.1,1.5,0.3,3,0.6,4.4
			c-0.1-0.1-0.3-0.1-0.5-0.2c4.5,27.2,26.2,46.8,52.1,47.1c0.2,0,0.5,0,0.7,0c0.2,0,0.4,0,0.6,0c12.9-0.1,26.8-4.9,40-16.1
			C135,113.8,75.5,35.6,49.8-0.1z"/>
	</g>
</g>
</svg>
