<?xml version="1.0" encoding="utf-8"?>
<!-- Generator: Adobe Illustrator 22.0.1, SVG Export Plug-In . SVG Version: 6.00 Build 0)  -->
<svg version="1.1" name="layer" xmlns="http://www.w3.org/2000/svg" xmlns:xlink="http://www.w3.org/1999/xlink" x="0px" y="0px"
	 viewBox="0 0 102.3 156.5" style="enable-background:new 0 0 102.3 156.5;" xml:space="preserve">
<g name="dht" transform="matrix(1, 0, 0, 1, 0, -769.89)">
	<g name="selected" style="opacity:0;">
		<path name="selectedPath" style="fill:#FFFFFF;stroke:#33BBFF;stroke-width:5;stroke-miterlimit:10;" d="M94.4,769.9h-0.9
			c0,0,0,0,0,0H5.9c0,0,0,0,0,0H5c-2.7,0-5,2.2-5,5v0v0.9v23.9v7.9v7.9v7.9v8v7.9v7.9v7.9v7.9v8v14v0.9v0c0,2.7,2.2,5,5,5h17.7v31.9
			c0,1.1,0.9,2,2,2c1.1,0,2-0.9,2-2V891h13v31.9c0,1.1,0.9,2,2,2c1.1,0,2-0.9,2-2V891h13v31.9c0,1.1,0.9,2,2,2c1.1,0,2-0.9,2-2V891
			h13v31.9c0,1.1,0.9,2,2,2c1.1,0,2-0.9,2-2V891h16.7c2.8,0,5-2.2,5-5v0v-0.9v-14v-8v-7.9v-7.9v-7.9v-7.9v-8v-7.9v-7.9v-7.9v-23.9
			v-0.9v0C99.4,772.1,97.1,769.9,94.4,769.9z"/>
	</g>
	<g name="body">
		<g name="pin">
			<path style="fill:#9FA0A0;" d="M24.7,924.9c-1.1,0-2-0.9-2-2v-39.8c0-1.1,0.9-2,2-2c1.1,0,2,0.9,2,2v39.8
				C26.7,924,25.8,924.9,24.7,924.9z"/>
			<path style="fill:#9FA0A0;" d="M41.7,924.9c-1.1,0-2-0.9-2-2v-39.8c0-1.1,0.9-2,2-2c1.1,0,2,0.9,2,2v39.8
				C43.7,924,42.8,924.9,41.7,924.9z"/>
			<path style="fill:#9FA0A0;" d="M58.7,924.9c-1.1,0-2-0.9-2-2v-39.8c0-1.1,0.9-2,2-2c1.1,0,2,0.9,2,2v39.8
				C60.7,924,59.8,924.9,58.7,924.9z"/>
			<path style="fill:#9FA0A0;" d="M75.7,924.9c-1.1,0-2-0.9-2-2v-39.8c0-1.1,0.9-2,2-2c1.1,0,2,0.9,2,2v39.8
				C77.7,924,76.8,924.9,75.7,924.9z"/>
		</g>
		<g name="main">
			<path name="rect5185" style="fill:#343434;" d="M5,769.9h89.4c2.7,0,5,2.2,5,5V886c0,2.7-2.2,5-5,5H5c-2.7,0-5-2.2-5-5V774.9
				C0,772.1,2.2,769.9,5,769.9z"/>
			<rect name="rect5401_1_" x="12.9" y="784.8" style="fill:#D7F4EE;fill-opacity:0.6359;" width="46.7" height="66.5"/>
			<path d="M59.9,851.6H12.6v-67.1h47.3V851.6z M13.2,851h46.1v-65.9H13.2V851z"/>
			<path style="fill:#316691;" d="M93.5,891H5.9c-3.2,0-5.9-2.6-5.9-5.9V775.8c0-3.2,2.6-5.9,5.9-5.9h87.6c3.2,0,5.9,2.6,5.9,5.9
				v109.4C99.4,888.4,96.7,891,93.5,891z M5.9,773.9c-1.1,0-1.9,0.9-1.9,1.9v109.4c0,1,0.9,1.9,1.9,1.9h87.6c1.1,0,1.9-0.9,1.9-1.9
				V775.8c0-1.1-0.9-1.9-1.9-1.9H5.9z"/>
			<path name="rect4672" style="fill:#48A1D1;" d="M5,769.9c-2.8,0-5,2.2-5,5v24.8h19.9v7.9H0v7.9h19.9v7.9H0v8h19.9v7.9H0v7.9h19.9
				v7.9H0v7.9h19.9v8H0v14.9c0,2.7,2.2,5,5,5h89.4c2.8,0,5-2.2,5-5v-14.9H79.5v-8h19.9v-7.9H79.5v-7.9h19.9v-7.9H79.5v-7.9h19.9v-8
				H79.5v-7.9h19.9v-7.9H79.5v-7.9h19.9v-24.8c0-2.8-2.2-5-5-5H69.6v19.9h-7.9v-19.9h-7.9v19.9h-8v-19.9h-7.9v19.9h-7.9v-19.9H5z
				 M29.8,799.7h7.9v7.9h-7.9V799.7z M45.7,799.7h8v7.9h-8V799.7z M61.6,799.7h7.9v7.9h-7.9V799.7z M29.8,815.5h7.9v7.9h-7.9V815.5z
				 M45.7,815.5h8v7.9h-8V815.5z M61.6,815.5h7.9v7.9h-7.9V815.5z M29.8,831.5h7.9v7.9h-7.9V831.5z M45.7,831.5h8v7.9h-8V831.5z
				 M61.6,831.5h7.9v7.9h-7.9V831.5z M29.8,847.3h7.9v7.9h-7.9V847.3z M45.7,847.3h8v7.9h-8V847.3z M61.6,847.3h7.9v7.9h-7.9V847.3z
				 M29.8,863.2h7.9v8h-7.9V863.2z M45.7,863.2h8v8h-8V863.2z M61.6,863.2h7.9v8h-7.9V863.2z"/>
			<path style="opacity:0.7065;fill:#FFFFFF;" d="M2,798.4c-0.4,0-0.7-0.3-0.7-0.7v-22.8c0-2,1.6-3.7,3.7-3.7h20.9
				c0.4,0,0.7,0.3,0.7,0.7c0,0.4-0.3,0.7-0.7,0.7H5c-1.3,0-2.3,1-2.3,2.3v22.8C2.7,798.1,2.4,798.4,2,798.4z M2.7,813.6v-4
				c0-0.4-0.3-0.7-0.7-0.7c-0.4,0-0.7,0.3-0.7,0.7v4c0,0.4,0.3,0.7,0.7,0.7C2.4,814.3,2.7,813.9,2.7,813.6z M2.7,829.4v-4
				c0-0.4-0.3-0.7-0.7-0.7c-0.4,0-0.7,0.3-0.7,0.7v4c0,0.4,0.3,0.7,0.7,0.7C2.4,830.1,2.7,829.8,2.7,829.4z M2.7,845.3v-4
				c0-0.4-0.3-0.7-0.7-0.7c-0.4,0-0.7,0.3-0.7,0.7v4c0,0.4,0.3,0.7,0.7,0.7C2.4,846,2.7,845.7,2.7,845.3z M2.7,861.2v-4
				c0-0.4-0.3-0.7-0.7-0.7c-0.4,0-0.7,0.3-0.7,0.7v4c0,0.4,0.3,0.7,0.7,0.7C2.4,861.9,2.7,861.6,2.7,861.2z M2.7,884v-9.9
				c0-0.4-0.3-0.7-0.7-0.7c-0.4,0-0.7,0.3-0.7,0.7v9.9c0,0.4,0.3,0.7,0.7,0.7C2.4,884.7,2.7,884.4,2.7,884z"/>
			<path style="opacity:6.521700e-02;" d="M94.4,889.5H81.5c-0.3,0-0.5-0.2-0.5-0.5c0-0.3,0.2-0.5,0.5-0.5h12.9
				c1.4,0,2.5-1.1,2.5-2.5v-12.9c0-0.3,0.2-0.5,0.5-0.5c0.3,0,0.5,0.2,0.5,0.5V886C97.9,887.9,96.3,889.5,94.4,889.5z M97.9,861.2
				v-4c0-0.3-0.2-0.5-0.5-0.5c-0.3,0-0.5,0.2-0.5,0.5v4c0,0.3,0.2,0.5,0.5,0.5C97.7,861.7,97.9,861.5,97.9,861.2z M97.9,845.3v-4
				c0-0.3-0.2-0.5-0.5-0.5c-0.3,0-0.5,0.2-0.5,0.5v4c0,0.3,0.2,0.5,0.5,0.5C97.7,845.8,97.9,845.6,97.9,845.3z M97.9,829.4v-4
				c0-0.3-0.2-0.5-0.5-0.5c-0.3,0-0.5,0.2-0.5,0.5v4c0,0.3,0.2,0.5,0.5,0.5C97.7,829.9,97.9,829.7,97.9,829.4z M97.9,813.6v-4
				c0-0.3-0.2-0.5-0.5-0.5c-0.3,0-0.5,0.2-0.5,0.5v4c0,0.3,0.2,0.5,0.5,0.5C97.7,814.1,97.9,813.8,97.9,813.6z"/>
		</g>
	</g>
	<g name="select" style="opacity:0;">
		<path name="selectPath" style="fill:#FFFFFF;" d="M94.4,769.9h-0.9c0,0,0,0,0,0H5.9c0,0,0,0,0,0H5c-2.7,0-5,2.2-5,5v0v0.9v23.9v7.9
			v7.9v7.9v8v7.9v7.9v7.9v7.9v8v14v0.9v0c0,2.7,2.2,5,5,5h17.7v31.9c0,1.1,0.9,2,2,2c1.1,0,2-0.9,2-2V891h13v31.9c0,1.1,0.9,2,2,2
			c1.1,0,2-0.9,2-2V891h13v31.9c0,1.1,0.9,2,2,2c1.1,0,2-0.9,2-2V891h13v31.9c0,1.1,0.9,2,2,2c1.1,0,2-0.9,2-2V891h16.7
			c2.8,0,5-2.2,5-5v0v-0.9v-14v-8v-7.9v-7.9v-7.9v-7.9v-8v-7.9v-7.9v-7.9v-23.9v-0.9v0C99.4,772.1,97.1,769.9,94.4,769.9z"/>
	</g>
	<g name="pinGroup" style="opacity:0;">
		<rect name="pin-3v3" x="20.7" y="916.9" style="fill:#E60012;" width="8" height="8"/>
		<rect name="pin-digital" x="37.3" y="916.9" style="fill:#E60012;" width="8" height="8"/>
		<rect name="pin-gnd" x="71.7" y="916.9" style="fill:#E60012;" width="8" height="8"/>
	</g>
</g>
</svg>
