<?xml version="1.0" encoding="utf-8"?>
<!-- Generator: Adobe Illustrator 22.0.1, SVG Export Plug-In . SVG Version: 6.00 Build 0)  -->
<svg version="1.1" name="layer" xmlns="http://www.w3.org/2000/svg" xmlns:xlink="http://www.w3.org/1999/xlink" x="0px" y="0px"
	 viewBox="0 0 113.5 177.4" style="enable-background:new 0 0 113.5 177.4;" xml:space="preserve">
<g name="fire">
	<g name="selected" style="opacity:0;">
		<path name="selectedPath" style="fill:#FFFFFF;stroke:#33BBFF;stroke-width:5;stroke-miterlimit:10;" d="M101.1,71.1
			c2.2,11.5-2,22-6.1,29.1C98.2,67.6,77,50,77,50C51.7,22.3,69.2,0,69.2,0C23.7,20.2,26.7,81.3,26.7,81.3C15.6,64.4,23.5,47,23.5,47
			c-38.5,47.5-7.2,81.6-7.2,81.6C5.7,118.3,0,105.3,0,105.3c1.1,57.5,56.8,63.8,56.8,63.8C140.2,127.6,101.1,71.1,101.1,71.1z"/>
	</g>
	<g name="body">
		<path style="fill:#F15A24;" d="M101.1,71.1c2.2,11.5-2,22-6.1,29.1C98.2,67.6,77,50,77,50C51.7,22.3,69.2,0,69.2,0
			C23.7,20.2,26.7,81.3,26.7,81.3C15.6,64.4,23.5,47,23.5,47c-38.5,47.5-7.2,81.6-7.2,81.6C5.7,118.3,0,105.3,0,105.3
			c1.1,57.5,56.8,63.8,56.8,63.8C140.2,127.6,101.1,71.1,101.1,71.1z"/>
		<path style="fill:#F7931E;" d="M77.6,133.8c1.8-18.4-10.2-28.3-10.2-28.3C53.1,89.9,63,77.3,63,77.3
			c-25.6,11.4-23.9,45.9-23.9,45.9c-6.3-9.5-1.9-19.4-1.9-19.4c-21.8,26.8-4.1,46.1-4.1,46.1c-6-5.8-9.2-13.1-9.2-13.1
			c0.2,11.5,4.3,19.3,9.5,24.7c12.3,6.4,23.3,7.7,23.3,7.7c8.2-4.1,15.3-8.3,21.2-12.7c16.4-19.7,3-39.1,3-39.1
			C82.2,123.9,79.9,129.8,77.6,133.8z"/>
		<path style="fill:#FCEE21;" d="M69.4,162.2c8.5-11.3,1-22.1,1-22.1c0.7,3.9-0.6,7.4-2,9.7c1.1-10.9-5.9-16.7-5.9-16.7
			c-8.4-9.2-2.6-16.6-2.6-16.6c-15.2,6.7-14.2,27-14.2,27c-3.7-5.6-1.1-11.4-1.1-11.4c-12.8,15.8-2.4,27.1-2.4,27.1
			c-3.5-3.4-5.4-7.7-5.4-7.7c0.1,6,2,10.4,4.6,13.4c8.7,3.4,15.4,4.1,15.4,4.1C61.4,166.9,65.5,164.6,69.4,162.2z"/>
	</g>
	<g name="select" style="opacity:0;">
		<path name="selectPath" style="fill:#FFFFFF;" d="M101.1,71.1c2.2,11.5-2,22-6.1,29.1C98.2,67.6,77,50,77,50
			C51.7,22.3,69.2,0,69.2,0C23.7,20.2,26.7,81.3,26.7,81.3C15.6,64.4,23.5,47,23.5,47c-38.5,47.5-7.2,81.6-7.2,81.6
			C5.7,118.3,0,105.3,0,105.3c1.1,57.5,56.8,63.8,56.8,63.8C140.2,127.6,101.1,71.1,101.1,71.1z"/>
	</g>
</g>
</svg>
