<?xml version="1.0" encoding="utf-8"?>
<!-- Generator: Adobe Illustrator 22.0.1, SVG Export Plug-In . SVG Version: 6.00 Build 0)  -->
<svg version="1.1" name="layer" 
  xmlns="http://www.w3.org/2000/svg" 
  xmlns:xlink="http://www.w3.org/1999/xlink" x="0px" y="0px" viewBox="0 0 178.5 399.4" style="enable-background:new 0 0 178.5 399.4;" xml:space="preserve">
  <g name="smart">
    <g name="power" transform="translate(0,50)">
      <g>
        <path style="fill:#333333;" d="M95.2,327v13c0,4.7,3.8,8.5,8.5,8.5s8.5-3.8,8.5-8.5v-13H95.2z"/>
        <path style="opacity:0.3;enable-background:new    ;" d="M103.7,329.5c3.3,0,6.3,0.5,8.5,2V327h-17v4.4
				C97.3,330,100.3,329.5,103.7,329.5z"/>
        <path style="fill:#333333;" d="M115.3,326v-10.4c0-0.6-0.5-1.1-1.1-1.1h-2.4v-4h2.4c0.6,0,1.1-0.5,1.1-1.1v-12.9H92v12.9
				c0,0.6,0.5,1.1,1.1,1.1h0.4c0.2,0,2,0,2,0v4c0,0-1.8,0-2,0h-0.4c-0.6,0-1.1,0.5-1.1,1.1V326c0,0.6,0.5,1.1,1.1,1.1h21.2
				C114.8,327,115.3,326.6,115.3,326z"/>
        <ellipse style="opacity:0.2;enable-background:new    ;" cx="103.7" cy="320.5" rx="9.1" ry="2.1"/>
        <ellipse style="opacity:0.2;enable-background:new    ;" cx="103.7" cy="320.5" rx="7.3" ry="2.1"/>
        <ellipse style="opacity:0.2;enable-background:new    ;" cx="103.7" cy="304.9" rx="9.1" ry="2.1"/>
        <ellipse style="opacity:0.2;enable-background:new    ;" cx="103.7" cy="304.9" rx="7.3" ry="2.1"/>
        <path style="opacity:0.3;enable-background:new    ;" d="M96.1,314.5c0.9,0,1.6-1,1.6-2s-0.7-2-1.6-2h-0.5v4H96.1z"/>
        <path style="opacity:0.3;enable-background:new    ;" d="M111.3,310.5c-1.1,0-1.6,1-1.6,2s0.6,2,1.6,2h0.6v-4H111.3z"/>
        <path style="fill:#262626;" d="M115.3,302v-3.2H92v3.2C95,300.1,112.3,300.1,115.3,302z"/>
        <path style="fill:#333333;" d="M126.8,235h1.1c0.1,0,0.2-0.1,0.2-0.2v-21.4c0-0.5-0.4-1-1-1h-47c-0.5,0-1,0.4-1,1v21.4
				c0,0.1,0.1,0.2,0.2,0.2h1.1c0.1,0,0.2,0.1,0.2,0.2v2.4c0,0.1-0.1,0.2-0.2,0.2h-1.1c-0.1,0-0.2,0.1-0.2,0.2v3.4
				c0,0.1,0.1,0.2,0.2,0.2h1.1c0.1,0,0.2,0.1,0.2,0.2v2.4c0,0.1-0.1,0.2-0.2,0.2h-1.1c-0.1,0-0.2,0.1-0.2,0.2v3.4
				c0,0.1,0.1,0.2,0.2,0.2h1.1c0.1,0,0.2,0.1,0.2,0.2v2.4c0,0.1-0.1,0.2-0.2,0.2h-1.1c-0.1,0-0.2,0.1-0.2,0.2v3.4
				c0,0.1,0.1,0.2,0.2,0.2h1.1c0.1,0,0.2,0.1,0.2,0.2v2.4c0,0.1-0.1,0.2-0.2,0.2h-1.1c-0.1,0-0.2,0.1-0.2,0.2v3.4
				c0,0.1,0.1,0.2,0.2,0.2h1.1c0.1,0,0.2,0.1,0.2,0.2v2.4c0,0.1-0.1,0.2-0.2,0.2h-1.1c-0.1,0-0.2,0.1-0.2,0.2v3.4
				c0,0.1,0.1,0.2,0.2,0.2h1.1c0.1,0,0.2,0.1,0.2,0.2v2.4c0,0.1-0.1,0.2-0.2,0.2h-1.1c-0.1,0-0.2,0.1-0.2,0.2v16.1
				c0,0.9,0.4,1.7,1.1,2.3l3.8,3.1c0.7,0.5,1.1,1.4,1.1,2.3v1.5c0,1.1,0.9,1.9,1.9,1.9h32.7c1.1,0,1.9-0.9,1.9-1.9v-1.4
				c0-0.9,0.4-1.8,1.2-2.3l4.1-3.1c0.7-0.5,1.2-1.4,1.2-2.3v-16.1c0-0.1-0.1-0.2-0.2-0.2h-1.1c-0.1,0-0.2-0.1-0.2-0.2v-2.4
				c0-0.1,0.1-0.2,0.2-0.2h1.1c0.1,0,0.2-0.1,0.2-0.2V265c0-0.1-0.1-0.2-0.2-0.2h-1.1c-0.1,0-0.2-0.1-0.2-0.2v-2.4
				c0-0.1,0.1-0.2,0.2-0.2h1.1c0.1,0,0.2-0.1,0.2-0.2v-3.4c0-0.1-0.1-0.2-0.2-0.2h-1.1c-0.1,0-0.2-0.1-0.2-0.2v-2.4
				c0-0.1,0.1-0.2,0.2-0.2h1.1c0.1,0,0.2-0.1,0.2-0.2v-3.4c0-0.1-0.1-0.2-0.2-0.2h-1.1c-0.1,0-0.2-0.1-0.2-0.2V249
				c0-0.1,0.1-0.2,0.2-0.2h1.1c0.1,0,0.2-0.1,0.2-0.2v-3.4c0-0.1-0.1-0.2-0.2-0.2h-1.1c-0.1,0-0.2-0.1-0.2-0.2V242
				c0-0.1,0.1-0.2,0.2-0.2h1.1c0.1,0,0.2-0.1,0.2-0.2v-3.4c0-0.1-0.1-0.2-0.2-0.2h-1.1c-0.1,0-0.2-0.1-0.2-0.2v-2.4
				C126.5,235.1,126.6,235,126.8,235z"/>
        <rect x="89" y="222.3" style="fill:#1E1E1E;" width="29.3" height="45.1"/>
        <path style="fill:#595757;" d="M100.4,231.2c0,1.6,1.2,2.9,2.7,3.2v5.5l0,0c0,2.2-1.3,3.3-2.8,4.6c-0.9,0.8-1.9,1.6-2.6,2.8l0,0
				c-0.3,0.5-0.3,1.4-0.3,3.4c0,0.2,0,0.3,0,0.5h-1.6v4.5h4.5v-4.5h-1.6c0-1.5,0-3,0.1-3.3c0.6-1,1.5-1.7,2.3-2.5
				c0.7-0.6,1.4-1.2,2-1.9v14.8h-1.5c0,0,2,4.3,2,4.4c0.1,0.1,2.1-4.4,2.1-4.4h-1.4v-20c0.7,0.9,1.6,1.7,2.3,2.4c1,0.9,2,1.8,2,2.5
				v3c-0.9,0.3-1.6,1.1-1.6,2.1c0,1.2,1,2.2,2.2,2.2l0,0c1.2,0,2.2-1,2.2-2.2c0-1-0.6-1.8-1.5-2.1v-3c0-1.3-1.1-2.3-2.4-3.4
				c-1.4-1.3-3-2.7-3.2-4.6l0,0v-0.9c1.5-0.3,2.6-1.6,2.6-3.2c0-1.8-1.5-3.3-3.3-3.3l0,0C101.9,228,100.4,229.4,100.4,231.2z"/>
        <path style="fill:#BFBFBF;" d="M118.1,187.6H89.3c-0.5,0-1,0.4-1,1v23.8H119v-23.8C119,188.1,118.6,187.6,118.1,187.6z"/>
        <g>
          <path style="fill:#BFBFBF;" d="M103.7,212.4v-9c0-0.3,0.3-0.6,0.6-0.6h1.4c0.3,0,0.6-0.3,0.6-0.6v-3.8c0-0.3-0.3-0.6-0.6-0.6
					h-1.4c-0.3,0-0.6-0.3-0.6-0.6v-9.7"/>
          <path style="fill:#A5A5A5;" d="M106.8,198.5v3.8c0,0.6-0.5,1.2-1.2,1.2h-1.4v9H103v-9c0-0.6,0.5-1.2,1.2-1.2h1.4v-3.7h-1.4
					c-0.6,0-1.2-0.5-1.2-1.2v-9.7h1.2v9.7h1.3C106.2,197.3,106.8,197.8,106.8,198.5z"/>
        </g>
        <path style="opacity:0.2;fill:#FFFFFF;enable-background:new    ;" d="M95,212.4h-6.7v-23.8c0-0.5,0.4-1,1-1H95V212.4L95,212.4z" />
        <path style="opacity:0.2;fill:#FFFFFF;enable-background:new    ;" d="M119,212.4h-6.7v-24.8h5.7c0.5,0,1,0.4,1,1V212.4z"/>
        <path style="fill:#A5A5A5;" d="M119.1,188.6v23.9H88.2v-23.9c0-0.6,0.5-1,1-1H118C118.6,187.6,119.1,188,119.1,188.6z M119,212.3
				v-23.7c0-0.5-0.4-0.9-0.9-0.9H89.3c-0.5,0-0.9,0.4-0.9,0.9v23.7H119L119,212.3z"/>
        <path style="fill:#FFE91D;fill-opacity:0;" d="M102.8,339.1c0.1-0.1,0-0.2-0.2-0.2h-1.2c-0.1,0-0.2-0.1-0.1-0.2l4.4-4.4
				c0.1-0.1,0.1-0.1,0.1,0.1l-1.4,3.2c-0.1,0.1,0,0.2,0.2,0.2h1.2c0.1,0,0.2,0.1,0.1,0.2l-4.2,4.2c-0.1,0.1-0.1,0.1-0.1-0.1
				L102.8,339.1z"/>
        <g>
          <circle style="fill:#939393;" cx="103.7" cy="341.5" r="1.1"/>
          <circle style="fill:#939393;" cx="103.7" cy="338.2" r="1.1"/>
          <circle style="fill:#939393;" cx="103.7" cy="334.9" r="1.1"/>
        </g>
        <polygon style="fill:#F8B62D;" points="93.3,278.2 103.5,285.7 104.8,282 113.3,284.8 102.8,276.6 101.4,280.9 			"/>
      </g>
    </g>
    <g name="selected" style="opacity:0;">
      <path name="selectPath_1_" style="fill:#FFFFFF;stroke:#33BBFF;stroke-width:5;stroke-miterlimit:10;" d="M177.4,0H0v211.7h18.1v1.4
			c0,0.5,0.4,0.9,0.9,0.9h14.4v3.1c0,0.5,0.4,0.9,0.9,0.9h18.5c0.5,0,0.9-0.4,0.9-0.9V214h14.4c0.5,0,0.9-0.4,0.9-0.9v-1.4h9.5v5.6
			c0,0.4,0.3,0.6,0.6,0.6h49.6c0.3,0,0.6-0.3,0.6-0.6v-5.6h48.3V0H177.4z"/>
    </g>
    <g name="board">
      <rect name="board_1_" y="0" style="fill:#555555;" width="177.4" height="211.7"/>
      <g name="usb">
        <g>
          <path style="fill:#9D9D9E;" d="M129.1,217.3c0,0.4-0.3,0.6-0.6,0.6H78.8c-0.3,0-0.6-0.3-0.6-0.6v-34.5c0-0.4,0.3-0.6,0.6-0.6
					h49.6c0.3,0,0.6,0.3,0.6,0.6v34.5H129.1z"/>
        </g>
        <g>
          <g>
            <polygon style="fill:#717071;" points="89,206.8 89,211.4 89.8,212.8 89.5,213.6 85.1,213.6 84.8,212.8 85.5,211.4 85.5,206.8 
											"/>
          </g>
          <g>
            <polygon style="fill:#717071;" points="121.8,206.8 121.8,211.4 122.6,212.8 122.3,213.6 117.9,213.6 117.5,212.8 118.3,211.4 
						118.3,206.8 					"/>
          </g>
          <g style="opacity:0.3;">
            <polygon style="fill:#2C2D2D;" points="122.6,212.8 122.3,213.6 121.6,213.6 121.9,212.8 121.2,211.4 121.2,206.8 121.8,206.8 
						121.8,211.4 					"/>
          </g>
          <g style="opacity:0.3;">
            <polygon style="fill:#2C2D2D;" points="89.8,212.8 89.5,213.6 88.8,213.6 89.1,212.8 88.4,211.4 88.4,206.8 89,206.8 89,211.4 
											"/>
          </g>
        </g>
        <g>
          <g>
            <polygon style="fill:#717071;" points="99.3,184.7 99.8,182.2 92.2,182.2 92,183.5 					"/>
          </g>
          <g>
            <polygon style="fill:#717071;" points="108,184.7 107.4,182.2 115.1,182.2 115.4,183.5 					"/>
          </g>
          <g style="opacity:0.3;">
            <polygon style="fill:#2C2D2D;" points="115.4,183.5 114.9,183.5 114.7,182.2 115.1,182.2 					"/>
          </g>
          <g style="opacity:0.3;">
            <polygon style="fill:#2C2D2D;" points="98.9,184.7 99.3,184.7 99.8,182.2 99.3,182.2 					"/>
          </g>
        </g>
      </g>
      <g name="text:_Colaborate-Medium">
        <path style="fill:#FFBB43;" d="M23.3,56.9h-2v-1.1h5.4v1.1h-2V63h-1.4V56.9z M28.8,63l1.7-2.6L32,63h1.7l-2.4-3.8l2.2-3.5H32
				L30.6,58l-1.3-2.3h-1.6l2.1,3.5L27.3,63H28.8z"/>
        <path style="fill:#7DE800;" d="M25.5,77c1.4-0.2,1.8-1.1,1.8-2.1c0-1.7-1.3-2.1-2.5-2.1h-2.7v7.3h1.4v-3h0.3l2.2,3h1.7L25.5,77z
				 M23.5,76v-2.1h1.4c0.7,0,1,0.4,1,1s-0.3,1.1-1,1.1H23.5z M34.8,72.8l-2.2,3.5l2.4,3.8h-1.7l-1.5-2.6l-1.7,2.6h-1.5l2.4-3.7
				l-2.1-3.5h1.6l1.3,2.3l1.4-2.3h1.6C34.8,72.9,34.8,72.8,34.8,72.8z"/>
        <path style="fill:#FFFFFF;" d="M24.1,89.9c-1.9,0-2.6,1.3-2.6,3.5S22,97,24.1,97s2.6-1.5,2.6-3.6S26.1,89.9,24.1,89.9z M24.1,96
				c-1.1,0-1.2-1-1.2-2.6c0-1.3,0.1-2.5,1.2-2.5s1.2,0.9,1.2,2.5C25.3,94.9,25.1,96,24.1,96z M31.2,94.7c0-0.9-0.4-1.1-1-1.1
				c-0.7,0-1,0.3-1.4,0.5l-0.9-0.3v-3.6h4.4v1.1h-3v1.5c0.3-0.1,0.6-0.2,1-0.2c1.4,0,2.3,0.7,2.3,2.2s-1.3,2.4-2.8,2.4
				c-0.7,0-1.6-0.1-2.2-0.3l0.4-1.2c0.5,0.2,1.3,0.4,1.8,0.4C31,96,31.2,95.4,31.2,94.7z"/>
        <path style="fill:#FFFFFF;" d="M24.1,107c-1.9,0-2.6,1.3-2.6,3.5s0.5,3.6,2.6,3.6s2.6-1.5,2.6-3.6C26.7,108.3,26.1,107,24.1,107z
				 M24.1,113.1c-1.1,0-1.2-1-1.2-2.6c0-1.3,0.1-2.5,1.2-2.5s1.2,0.9,1.2,2.5C25.3,112,25.1,113.1,24.1,113.1z M31.9,113.9v-1.8H33
				V111h-1.1v-3.9h-1.5l-3,3.9l0.5,1.1h2.7v1.8H31.9z M28.4,111.1l2-2.6v2.6H28.4z"/>
        <path style="fill:#FFFFFF;" d="M24.1,124c-1.9,0-2.6,1.3-2.6,3.5c0,2.2,0.5,3.6,2.6,3.6s2.6-1.5,2.6-3.6
				C26.7,125.4,26.1,124,24.1,124z M24.1,130.1c-1.1,0-1.2-1-1.2-2.6c0-1.3,0.1-2.5,1.2-2.5s1.2,0.9,1.2,2.5
				C25.3,129,25.1,130.1,24.1,130.1z M30.1,131.2c2.1,0,2.6-1.5,2.6-3.6c0-2.2-0.6-3.5-2.6-3.5c-1.9,0-2.6,1.3-2.6,3.5
				C27.5,129.7,28.1,131.2,30.1,131.2z M30.1,125.1c1.1,0,1.2,0.9,1.2,2.5c0,1.5-0.1,2.6-1.2,2.6s-1.2-1-1.2-2.6
				C29,126.2,29,125.1,30.1,125.1z"/>
        <path style="fill:#FFFFFF;" d="M24.1,148.2c2.1,0,2.6-1.5,2.6-3.6c0-2.2-0.6-3.5-2.6-3.5c-1.9,0-2.6,1.3-2.6,3.5
				C21.5,146.8,22,148.2,24.1,148.2z M24.1,142.1c1.1,0,1.2,0.9,1.2,2.5c0,1.5-0.1,2.6-1.2,2.6s-1.2-1-1.2-2.6
				C22.9,143.3,23,142.1,24.1,142.1z M31.1,143.3c0-1-0.5-1.2-1.1-1.2c-0.5,0-1,0.2-1.7,0.6l-0.4-1.2c1.1-0.4,1.4-0.5,2.2-0.5
				c1.2,0,2.5,0.5,2.5,2.2c0,1.4-1.9,3-3,3.7h3.1v1.1H28l-0.4-1.2C28.7,146.1,31.1,144.5,31.1,143.3z"/>
        <path style="fill:#FFFFFF;" d="M24,165v-5.5l-1.3,1l-0.4-1l1.7-1.3h1.4v6.8H24z M32.6,162.8c0-1.5-1-2.2-2.3-2.2
				c-0.4,0-0.7,0.1-1,0.2v-1.5h3v-1.1h-4.4v3.6l0.9,0.3c0.3-0.2,0.7-0.5,1.4-0.5c0.6,0,1,0.3,1,1.1c0,0.7-0.2,1.4-1.4,1.4
				c-0.5,0-1.3-0.2-1.8-0.4l-0.4,1.2c0.6,0.2,1.5,0.3,2.2,0.3C31.3,165.2,32.6,164.4,32.6,162.8z M38.9,162l-1-0.5
				c0,0.7-0.3,0.8-0.8,0.8c-0.3,0-1-1-2.1-1c-1,0-1.5,0.7-1.5,1.4l1,0.5c0-0.7,0.3-0.9,0.8-0.9c0.4,0,1.1,1,2.1,1
				C38.4,163.4,38.9,162.7,38.9,162z"/>
        <path style="fill:#00C3FF;" d="M24.7,178.5h2.9v3.4c-0.8,0.4-1.4,0.6-2.4,0.6c-2.7,0-3.3-1.9-3.3-3.8c0-2.2,1-3.8,3.4-3.8
				c0.5,0,1.3,0.2,1.8,0.3l-0.4,1.2c-0.4-0.2-0.9-0.4-1.4-0.4c-1.2,0-2,0.6-2,2.7c0,1.7,0.4,2.8,1.9,2.8c0.5,0,0.8-0.1,1.2-0.3v-1.6
				h-1.6v-1.1L24.7,178.5L24.7,178.5z M33.9,180.7l-2.6-5.6h-2.1v7.3h1.3v-5.6l2.6,5.6h2.1v-7.3h-1.4v5.6H33.9z M43.2,178.7
				c0,2.7-1.1,3.7-3.5,3.7h-2.4v-7.3h2.4C42.1,175.1,43.2,176,43.2,178.7z M41.8,178.7c0-2.3-0.9-2.5-2-2.5h-1v5.1h1.1
				C41,181.3,41.8,180.8,41.8,178.7z"/>
        <path style="fill:#FFBB43;" d="M138.7,60h0.3l2.2,3h1.7l-2.3-3.1c1.4-0.2,1.8-1.1,1.8-2.1c0-1.7-1.3-2.1-2.5-2.1h-2.7V63h1.4v-3
				H138.7z M138.7,56.9h1.4c0.7,0,1,0.4,1,1s-0.3,1.1-1,1.1h-1.4V56.9z M147.9,61.2c0-0.8-0.9-1-1.8-1.4c-1-0.4-2-0.9-2-2.2
				c0-1.4,1.5-2,2.8-2c0.5,0,1.4,0.1,2,0.3l-0.4,1.2c-0.4-0.2-0.9-0.4-1.6-0.4c-1.1,0-1.3,0.5-1.3,0.9c0,0.6,0.7,0.8,1.5,1.1
				c1,0.4,2.3,0.9,2.3,2.4c0,1.8-1.5,2.1-3,2.1c-0.6,0-1.6-0.2-2.2-0.3l0.4-1.2c0.5,0.2,1.2,0.4,1.8,0.4
				C147.3,62.2,147.9,62,147.9,61.2z M155.8,55.8v1.1h-2V63h-1.4v-6.2h-2v-1.1L155.8,55.8L155.8,55.8z"/>
        <path style="fill:#00C3FF;" d="M142.6,80.1l0.7-1.9h2.6l0.6,1.9h1.6l-2.7-7.3h-1.3l-2.9,7.3H142.6z M144.7,74.4l0.9,2.7h-1.8
				L144.7,74.4z M155.3,76.5c0-2.6-1.1-3.6-3.5-3.6h-2.4v7.3h2.4C154.3,80.1,155.3,79.1,155.3,76.5z M150.9,73.9h1
				c1.1,0,2,0.2,2,2.5c0,2.1-0.8,2.6-1.9,2.6h-1.1V73.9z"/>
        <path style="fill:#FF5C5C;" d="M136.1,97.3c-0.8,0-1.5-0.1-2.1-0.3l0.4-1.2c0.2,0.1,1,0.4,1.7,0.4c0.8,0,1.2-0.5,1.2-1.1
				c0-1-0.8-1.1-2.1-1.1v-1c1.3,0,2-0.1,2-1c0-0.6-0.4-0.9-1-0.9c-0.5,0-1.2,0.3-1.7,0.5l-0.4-1.2c0.5-0.2,1.6-0.4,2.2-0.4
				c1.5,0,2.4,0.6,2.4,1.9c0,0.9-0.7,1.4-1.5,1.5c0.8,0.1,1.7,0.6,1.7,1.7C138.8,96.8,137.4,97.3,136.1,97.3z M140.5,97.1h1.3v-1.2
				h-1.3V97.1z M145.2,96.2c-0.7,0-1.5-0.3-1.8-0.4L143,97c0.7,0.2,1.4,0.3,2.1,0.3c1.2,0,2.7-0.4,2.7-2.1c0-1.1-0.9-1.6-1.7-1.7
				c0.8-0.1,1.5-0.5,1.5-1.5c0-1.3-0.8-1.9-2.4-1.9c-0.6,0-1.7,0.2-2.2,0.4l0.4,1.2c0.5-0.2,1.2-0.5,1.7-0.5c0.6,0,1,0.2,1,0.9
				c0,0.9-0.7,1-2,1v1c1.3,0,2.1,0.1,2.1,1.1C146.5,95.7,146,96.2,145.2,96.2z M154.2,89.8l-1.8,5.5l-1.9-5.5H149l2.7,7.3h1.3
				l2.6-7.3H154.2z"/>
        <path style="fill:#FFFFFF;" d="M148.3,114h-1.4v-5.5l-1.3,1l-0.4-1l1.7-1.3h1.4V114z M151.8,110.3c0.3-0.6,1.1-0.8,1.4-0.8
				c1.6,0,2.3,0.9,2.3,2.5c0,1.4-1.1,2.3-2.4,2.3c-2.2,0-2.6-1.7-2.6-3.4c0-1.8,0.8-3.8,3-3.8c0.4,0,1.2,0.1,1.6,0.2l-0.4,1.2
				c-0.4-0.2-0.7-0.3-1.2-0.3C152.2,108,151.8,109.2,151.8,110.3z M151.9,111.3c0,1.5,0.5,1.8,1.2,1.8c0.5,0,1-0.4,1-1.2v-0.1
				c0-0.5,0-1.4-1-1.4C152.3,110.5,152,110.9,151.9,111.3z"/>
        <path style="fill:#FFFFFF;" d="M148.3,131h-1.4v-5.5l-1.3,1l-0.4-1l1.7-1.3h1.4V131z M154.7,128.1h1.1v1.1h-1.1v1.8h-1.4v-1.8
				h-2.7l-0.5-1.1l3-3.9h1.5L154.7,128.1L154.7,128.1z M153.3,125.5l-2,2.6h2V125.5z"/>
        <path style="fill:#FFFFFF;" d="M142.6,144.6l1,0.5c0,0.7-0.5,1.4-1.5,1.4s-1.7-1-2.1-1c-0.5,0-0.8,0.2-0.8,0.9l-1-0.5
				c0-0.8,0.5-1.4,1.5-1.4c1.1,0,1.8,1,2.1,1C142.3,145.4,142.6,145.3,142.6,144.6z M148.3,141.3h-1.4l-1.7,1.3l0.4,1l1.3-1v5.5h1.4
				V141.3z M150.5,147l0.4,1.2h4.6v-1.1h-3.1c1.1-0.7,3-2.3,3-3.7c0-1.7-1.3-2.2-2.5-2.2c-0.7,0-1.1,0.1-2.2,0.5l0.4,1.2
				c0.8-0.4,1.2-0.6,1.7-0.6c0.6,0,1.1,0.2,1.1,1.2C154,144.6,151.6,146.2,150.5,147z"/>
        <path style="fill:#FFFFFF;" d="M142.6,161.5l1,0.5c0,0.7-0.5,1.4-1.5,1.4s-1.7-1-2.1-1c-0.5,0-0.8,0.2-0.8,0.9l-1-0.5
				c0-0.8,0.5-1.4,1.5-1.4c1.1,0,1.8,1,2.1,1C142.3,162.4,142.6,162.2,142.6,161.5z M148.3,165.1v-6.8h-1.4l-1.7,1.3l0.4,1l1.3-1
				v5.5H148.3z M152.6,164.2c-0.7,0-1.5-0.3-1.7-0.4l-0.4,1.2c0.7,0.2,1.4,0.3,2.1,0.3c1.2,0,2.7-0.4,2.7-2.1c0-1.1-0.9-1.6-1.7-1.7
				c0.8-0.1,1.5-0.5,1.5-1.5c0-1.3-0.8-1.9-2.4-1.9c-0.6,0-1.7,0.2-2.2,0.4l0.4,1.2c0.5-0.2,1.2-0.5,1.7-0.5c0.6,0,1,0.2,1,0.9
				c0,0.9-0.7,1-2,1v1c1.3,0,2.1,0.1,2.1,1.1C153.8,163.8,153.4,164.2,152.6,164.2z"/>
        <path style="fill:#FF5C5C;" d="M141.6,175.1h1.5l-2.6,7.3h-1.3l-2.7-7.3h1.6l1.9,5.5L141.6,175.1z M147.1,181.5
				c-1.4,0-1.9-1-1.9-2.8c0-1.7,0.5-2.7,1.9-2.7c0.5,0,1,0.2,1.5,0.4l0.4-1.2c-0.5-0.2-1.3-0.3-1.9-0.3c-2.6,0-3.4,1.8-3.4,3.8
				c0,2.3,0.9,3.8,3.3,3.8c0.8,0,1.4-0.1,2-0.3l-0.4-1.2C148.1,181.3,147.7,181.5,147.1,181.5z M153.5,181.5c-1.4,0-1.9-1-1.9-2.8
				c0-1.7,0.5-2.7,1.9-2.7c0.5,0,1,0.2,1.5,0.4l0.4-1.2c-0.5-0.2-1.3-0.3-1.9-0.3c-2.6,0-3.4,1.8-3.4,3.8c0,2.3,0.9,3.8,3.3,3.8
				c0.8,0,1.4-0.1,2-0.3L155,181C154.6,181.3,154.1,181.5,153.5,181.5z"/>
      </g>
      <g name="ICGroup2">
        <path style="fill:#DADADA;" d="M86.2,134.4v-2.1h2.2h3.3h2.2v2.1l-2.2,1.8v4.5h-3.3v-4.5L86.2,134.4z M103.2,136.2v4.5h3.3v-4.5
				l2.2-1.8v-2.1h-2.2h-3.3H101v2.1L103.2,136.2z M73.6,136.1v4.5h3.3v-4.5l2.2-1.8v-2.1h-2.2h-3.3h-2.2v2.1L73.6,136.1z"/>
        <path style="fill:#BBBBBB;" d="M104.1,99c0,0.6-0.5,1-1,1h-26c-0.6,0-1-0.5-1-1V86.6c0-0.6,0.5-1,1-1h26c0.6,0,1,0.5,1,1V99z"/>
        <path style="fill:#DADADA;" d="M100.4,100.8c0,0.6-0.5,0.5-1,0.5H80.7c-0.6,0-1,0.1-1-0.5v-5.4c0-0.6,0.5-1,1-1h18.7
				c0.6,0,1,0.5,1,1C100.4,95.4,100.4,100.8,100.4,100.8z"/>
        <path style="fill:#0E0E0E;" d="M115.9,131.3c0,0.6-0.5,1-1,1H65.2c-0.6,0-1-0.5-1-1v-29c0-0.6,0.5-1,1-1h49.6c0.6,0,1,0.5,1,1v29
				H115.9z"/>
      </g>
      <g name="ICGroup1">
        <g name="R6" style="opacity:0.4;">
          <g>
            <g>
              <path style="fill:#BBBBBB;" d="M40.9,110.2c0-0.4,0.1-0.6,0.4-0.6h11.6c0.4,0,0.4,0.3,0.4,0.6v2.9c0,0.4-0.1,0.6-0.4,0.6H41.3
							c-0.4,0-0.4-0.3-0.4-0.6C40.9,113.1,40.9,110.2,40.9,110.2z"/>
            </g>
            <g>
              <g>
                <rect x="44.8" y="109.6" style="fill:#0E0E0E;" width="4.4" height="4.1"/>
              </g>
            </g>
          </g>
          <g>
            <path style="fill:#DADADA;" d="M39.9,114.2V109c0-0.3,0.3-0.6,0.7-0.6h13.1c0.4,0,0.7,0.3,0.7,0.6v5.2c0,0.3-0.3,0.6-0.7,0.6
						H40.5C40.2,114.8,39.9,114.5,39.9,114.2z M54.1,109c0-0.2-0.2-0.4-0.5-0.4H40.5c-0.3,0-0.5,0.2-0.5,0.4v5.2
						c0,0.2,0.2,0.4,0.5,0.4h13.1c0.3,0,0.5-0.2,0.5-0.4V109z"/>
          </g>
        </g>
        <g name="C2" style="opacity:0.4;">
          <g>
            <g>
              <path style="fill:#BBBBBB;" d="M120.7,129.7c0-0.4,0.1-0.6,0.4-0.6h11.6c0.4,0,0.4,0.3,0.4,0.6v2.9c0,0.4-0.1,0.6-0.4,0.6
							h-11.6c-0.4,0-0.4-0.3-0.4-0.6V129.7z"/>
            </g>
            <g>
              <g>
                <rect x="124.7" y="129.1" style="fill:#0E0E0E;" width="4.4" height="4.1"/>
              </g>
            </g>
          </g>
          <g>
            <path style="fill:#DADADA;" d="M119.7,133.8v-5.2c0-0.3,0.3-0.6,0.7-0.6h13.1c0.4,0,0.7,0.3,0.7,0.6v5.2c0,0.3-0.3,0.6-0.7,0.6
						h-13.1C120,134.3,119.7,134.1,119.7,133.8z M134,128.6c0-0.2-0.2-0.4-0.5-0.4h-13.1c-0.3,0-0.5,0.2-0.5,0.4v5.2
						c0,0.2,0.2,0.4,0.5,0.4h13.1c0.3,0,0.5-0.2,0.5-0.4V128.6z"/>
          </g>
        </g>
        <g name="R1" style="opacity:0.4;">
          <g>
            <g>
              <path style="fill:#BBBBBB;" d="M126.4,158.1c0.4,0,0.6,0.1,0.6,0.4v11.6c0,0.3-0.3,0.4-0.6,0.4h-2.9c-0.4,0-0.6-0.1-0.6-0.4
							v-11.6c0-0.4,0.3-0.4,0.6-0.4H126.4z"/>
            </g>
            <g>
              <g>
                <rect x="122.8" y="162.1" style="fill:#0E0E0E;" width="4.1" height="4.4"/>
              </g>
            </g>
          </g>
          <g>
            <path style="fill:#DADADA;" d="M122.3,157.1h5.2c0.3,0,0.6,0.3,0.6,0.7v13.1c0,0.4-0.3,0.7-0.6,0.7h-5.2
						c-0.3,0-0.6-0.3-0.6-0.7v-13.1C121.8,157.4,122,157.1,122.3,157.1z M127.5,171.4c0.2,0,0.4-0.2,0.4-0.5v-13.1
						c0-0.3-0.2-0.5-0.4-0.5h-5.2c-0.2,0-0.4,0.2-0.4,0.5v13.1c0,0.3,0.2,0.5,0.4,0.5H127.5z"/>
          </g>
        </g>
        <g name="R1_1_" style="opacity:0.4;">
          <g>
            <g>
              <path style="fill:#BBBBBB;" d="M118.3,158.1c0.4,0,0.6,0.1,0.6,0.4v11.6c0,0.3-0.3,0.4-0.6,0.4h-2.9c-0.4,0-0.6-0.1-0.6-0.4
							v-11.6c0-0.4,0.3-0.4,0.6-0.4H118.3z"/>
            </g>
            <g>
              <g>
                <rect x="114.8" y="162.1" style="fill:#0E0E0E;" width="4.1" height="4.4"/>
              </g>
            </g>
          </g>
          <g>
            <path style="fill:#DADADA;" d="M114.3,157.1h5.2c0.3,0,0.6,0.3,0.6,0.7v13.1c0,0.4-0.3,0.7-0.6,0.7h-5.2
						c-0.3,0-0.6-0.3-0.6-0.7v-13.1C113.7,157.4,114,157.1,114.3,157.1z M119.5,171.4c0.2,0,0.4-0.2,0.4-0.5v-13.1
						c0-0.3-0.2-0.5-0.4-0.5h-5.2c-0.2,0-0.4,0.2-0.4,0.5v13.1c0,0.3,0.2,0.5,0.4,0.5H119.5z"/>
          </g>
        </g>
        <g name="C6" style="opacity:0.4;">
          <g>
            <g>
              <path style="fill:#BBBBBB;" d="M149.7,190.8c0.4,0,0.6,0.1,0.6,0.4v11.6c0,0.4-0.3,0.4-0.6,0.4h-2.9c-0.4,0-0.6-0.1-0.6-0.4
							v-11.6c0-0.4,0.3-0.4,0.6-0.4H149.7z"/>
            </g>
            <g>
              <g>
                <rect x="146.2" y="194.8" style="fill:#0E0E0E;" width="4.1" height="4.4"/>
              </g>
            </g>
          </g>
          <g>
            <path style="fill:#DADADA;" d="M145.7,189.8h5.2c0.3,0,0.6,0.3,0.6,0.7v13.1c0,0.4-0.3,0.7-0.6,0.7h-5.2
						c-0.3,0-0.6-0.3-0.6-0.7v-13.1C145.1,190.1,145.4,189.8,145.7,189.8z M150.9,204.1c0.2,0,0.4-0.2,0.4-0.5v-13.1
						c0-0.3-0.2-0.5-0.4-0.5h-5.2c-0.2,0-0.4,0.2-0.4,0.5v13.1c0,0.3,0.2,0.5,0.4,0.5H150.9z"/>
          </g>
        </g>
        <g name="R10" style="opacity:0.4;">
          <g>
            <g>
              <path style="fill:#BBBBBB;" d="M40.9,127.5c0-0.4,0.1-0.6,0.4-0.6h11.6c0.4,0,0.4,0.3,0.4,0.6v2.9c0,0.4-0.1,0.6-0.4,0.6H41.3
							c-0.4,0-0.4-0.3-0.4-0.6C40.9,130.4,40.9,127.5,40.9,127.5z"/>
            </g>
            <g>
              <g>
                <rect x="44.8" y="126.9" style="fill:#0E0E0E;" width="4.4" height="4.1"/>
              </g>
            </g>
          </g>
          <g>
            <path style="fill:#DADADA;" d="M39.9,131.6v-5.2c0-0.3,0.3-0.6,0.7-0.6h13.1c0.4,0,0.7,0.3,0.7,0.6v5.2c0,0.3-0.3,0.6-0.7,0.6
						H40.5C40.2,132.1,39.9,131.9,39.9,131.6z M54.1,126.4c0-0.2-0.2-0.4-0.5-0.4H40.5c-0.3,0-0.5,0.2-0.5,0.4v5.2
						c0,0.2,0.2,0.4,0.5,0.4h13.1c0.3,0,0.5-0.2,0.5-0.4V126.4z"/>
          </g>
        </g>
        <g name="R11" style="opacity:0.4;">
          <g>
            <g>
              <path style="fill:#BBBBBB;" d="M40.9,144.8c0-0.4,0.1-0.6,0.4-0.6h11.6c0.4,0,0.4,0.3,0.4,0.6v2.9c0,0.4-0.1,0.6-0.4,0.6H41.3
							c-0.4,0-0.4-0.3-0.4-0.6C40.9,147.7,40.9,144.8,40.9,144.8z"/>
            </g>
            <g>
              <g>
                <rect x="44.8" y="144.1" style="fill:#0E0E0E;" width="4.4" height="4.1"/>
              </g>
            </g>
          </g>
          <g>
            <path style="fill:#DADADA;" d="M39.9,148.8v-5.2c0-0.3,0.3-0.6,0.7-0.6h13.1c0.4,0,0.7,0.3,0.7,0.6v5.2c0,0.3-0.3,0.6-0.7,0.6
						H40.5C40.2,149.4,39.9,149.1,39.9,148.8z M54.1,143.6c0-0.2-0.2-0.4-0.5-0.4H40.5c-0.3,0-0.5,0.2-0.5,0.4v5.2
						c0,0.2,0.2,0.4,0.5,0.4h13.1c0.3,0,0.5-0.2,0.5-0.4V143.6z"/>
          </g>
        </g>
        <g name="R8" style="opacity:0.4;">
          <g>
            <g>
              <path style="fill:#BBBBBB;" d="M49.9,174.7c-0.4,0-0.6-0.1-0.6-0.4v-11.6c0-0.4,0.3-0.4,0.6-0.4h2.9c0.4,0,0.6,0.1,0.6,0.4
							v11.6c0,0.4-0.3,0.4-0.6,0.4H49.9z"/>
            </g>
            <g>
              <g>
                <rect x="49.3" y="166.4" style="fill:#0E0E0E;" width="4.1" height="4.4"/>
              </g>
            </g>
          </g>
          <g>
            <path style="fill:#DADADA;" d="M53.9,175.7h-5.2c-0.3,0-0.6-0.3-0.6-0.7v-13c0-0.4,0.3-0.7,0.6-0.7h5.2c0.3,0,0.6,0.3,0.6,0.7
						v13.1C54.5,175.4,54.2,175.7,53.9,175.7z M48.7,161.5c-0.2,0-0.4,0.2-0.4,0.5v13.1c0,0.3,0.2,0.5,0.4,0.5h5.2
						c0.2,0,0.4-0.2,0.4-0.5V162c0-0.3-0.2-0.5-0.4-0.5H48.7z"/>
          </g>
        </g>
      </g>
      <g name="logo">
        <rect x="106.5" y="4.9" style="fill:#FFFFFF;" width="0.7" height="4.2"/>
        <path style="fill:#FFFFFF;" d="M109.7,9.2c0.5,0,1-0.2,1.3-0.6c0.3-0.4,0.5-0.9,0.5-1.6s-0.2-1.2-0.5-1.6
				c-0.3-0.4-0.8-0.6-1.3-0.6c-0.3,0-0.6,0.1-0.8,0.2c-0.2,0.1-0.3,0.2-0.5,0.4c-0.1,0.2-0.3,0.4-0.3,0.6c-0.1,0.3-0.2,0.6-0.2,1.1
				c0,0.7,0.2,1.2,0.5,1.6C108.7,9,109.1,9.2,109.7,9.2z M108.9,5.9c0.2-0.2,0.4-0.4,0.7-0.4c0.3,0,0.6,0.1,0.7,0.4
				c0.2,0.2,0.3,0.6,0.3,1.1s-0.1,0.8-0.3,1.1c-0.2,0.2-0.4,0.4-0.7,0.4c-0.3,0-0.5-0.1-0.7-0.4c-0.2-0.2-0.3-0.6-0.3-1.1
				S108.7,6.2,108.9,5.9z"/>
        <polygon style="fill:#FFFFFF;" points="90,27.5 90.1,27.5 92.2,27.5 94.2,22.6 98.5,12.2 104.7,27.5 110.9,27.5 101.7,4.8 
				101.5,4.8 99.4,4.8 97.4,9.7 93.2,20.1 86.9,4.8 86.7,4.8 84.7,4.8 82.7,9.7 78.4,20.1 72.2,4.8 65.9,4.8 75.2,27.5 75.4,27.5 
				77.5,27.5 79.5,22.6 83.7,12.2 			"/>
        <polygon style="fill:#FFFFFF;" points="95.6,27.5 101.4,27.5 98.5,20.1 			"/>
        <polygon style="fill:#FFFFFF;" points="72.2,34.6 71.4,31 69.8,31 69,34.6 68.5,31 67,31 68.1,37.4 69.7,37.4 70.6,33.4 
				71.5,37.4 73.1,37.4 74.2,31 72.7,31 			"/>
        <polygon style="fill:#FFFFFF;" points="76.4,34.7 78.9,34.7 78.9,33.4 76.4,33.4 76.4,32.4 79.1,32.4 79.1,31 74.7,31 74.7,37.4 
				79.1,37.4 79.1,35.9 76.4,35.9 			"/>
        <path style="fill:#FFFFFF;" d="M83.7,34c0.2-0.1,0.4-0.2,0.6-0.4c0.2-0.3,0.3-0.6,0.3-1s-0.1-0.8-0.4-1.1
				C83.9,31.2,83.5,31,83,31h-3v6.3h2.8c0.1,0,0.4,0,0.7-0.1c0.3,0,0.5-0.1,0.6-0.2c0.2-0.1,0.4-0.4,0.5-0.6
				c0.1-0.3,0.2-0.6,0.2-0.9c0-0.4-0.1-0.7-0.3-1C84.4,34.3,84.1,34.1,83.7,34z M81.6,32.3h0.7c0.2,0,0.4,0.1,0.5,0.2
				c0.1,0.1,0.1,0.2,0.1,0.4s0,0.4-0.1,0.5s-0.3,0.2-0.5,0.2h-0.7V32.3z M83,35.8c-0.1,0.1-0.3,0.2-0.6,0.2h-0.8v-1.3h0.8
				c0.3,0,0.5,0.1,0.6,0.2c0.1,0.1,0.2,0.3,0.2,0.5C83.2,35.5,83.1,35.7,83,35.8z"/>
        <path style="fill:#FFFFFF;" d="M89.9,31.9c-0.2-0.3-0.4-0.5-0.7-0.7C88.9,31.1,88.5,31,88,31h-2.4v6.3H88c0.3,0,0.6-0.1,1-0.2
				c0.3-0.1,0.5-0.3,0.7-0.5c0.2-0.3,0.4-0.6,0.5-0.9c0.1-0.4,0.2-0.9,0.2-1.6c0-0.4,0-0.8-0.1-1.2C90.2,32.6,90.1,32.2,89.9,31.9z
				 M88.7,35.3c-0.1,0.2-0.2,0.4-0.3,0.5c-0.1,0.1-0.4,0.1-0.7,0.1h-0.4v-3.5h0.4c0.4,0,0.7,0.1,0.9,0.4c0.2,0.3,0.3,0.7,0.3,1.4
				C88.8,34.7,88.8,35.1,88.7,35.3z"/>
        <path style="fill:#FFFFFF;" d="M94.7,34.9c0,0.4-0.1,0.6-0.2,0.8c-0.2,0.2-0.4,0.3-0.6,0.3c-0.3,0-0.5-0.1-0.7-0.3
				S93,35.2,93,34.9V31h-1.6v3.8c0,0.3,0,0.7,0.1,1.1c0.1,0.3,0.2,0.5,0.3,0.7c0.2,0.2,0.3,0.4,0.6,0.5c0.2,0.1,0.4,0.2,0.7,0.3
				c0.3,0,0.6,0.1,0.8,0.1c0.4,0,0.8-0.1,1.1-0.2c0.2-0.1,0.4-0.3,0.6-0.5s0.4-0.5,0.4-0.9c0.1-0.3,0.1-0.7,0.1-1.1V31h-1.6v3.9
				H94.7z"/>
        <rect x="97.4" y="31" style="fill:#FFFFFF;" width="1.6" height="6.3"/>
        <polygon style="fill:#FFFFFF;" points="103.6,34.5 101.7,31 100.2,31 100.2,37.4 101.7,37.4 101.7,33.9 103.6,37.4 105.2,37.4 
				105.2,31 103.6,31 			"/>
        <path style="fill:#FFFFFF;" d="M108.7,30.9c-0.8,0-1.5,0.3-2,0.9c-0.5,0.6-0.7,1.4-0.7,2.4c0,0.7,0.1,1.4,0.4,1.9
				c0.2,0.5,0.5,0.9,0.9,1.1c0.4,0.2,0.9,0.3,1.5,0.3s1.1-0.1,1.4-0.4c0.4-0.3,0.7-0.6,0.9-1.1c0.2-0.5,0.3-1.1,0.3-1.8
				c0-1-0.2-1.8-0.7-2.4C110.2,31.2,109.6,30.9,108.7,30.9z M109.5,35.6c-0.2,0.3-0.5,0.4-0.8,0.4s-0.6-0.1-0.8-0.4
				c-0.2-0.3-0.3-0.7-0.3-1.4c0-0.6,0.1-1.1,0.3-1.4c0.2-0.3,0.5-0.4,0.8-0.4s0.6,0.1,0.8,0.4c0.2,0.3,0.3,0.7,0.3,1.3
				C109.8,34.8,109.7,35.3,109.5,35.6z"/>
      </g>
      <g name="boardPinRight">
        <rect x="160" y="49.5" style="fill:#444444;" width="17.4" height="139.3"/>
        <rect x="164.7" y="56.1" width="8" height="8"/>
        <rect x="164.7" y="72.9" width="8" height="8"/>
        <rect x="164.7" y="89.8" width="8" height="8"/>
        <rect x="164.7" y="106.6" width="8" height="8"/>
        <rect x="164.7" y="123.5" width="8" height="8"/>
        <g>
          <polygon style="fill:#373737;" points="162,66.8 164.9,63.9 164.9,56.2 162,53.4 				"/>
          <polygon style="fill:#2A2A29;" points="162,53.4 164.9,56.2 172.5,56.2 175.4,53.4 				"/>
          <polygon style="fill:#474747;" points="175.4,53.4 172.5,56.2 172.5,63.9 175.4,66.8 				"/>
          <polygon style="fill:#595959;" points="175.4,66.8 172.5,63.9 164.9,63.9 162,66.8 				"/>
        </g>
        <g>
          <polygon style="fill:#373737;" points="162,83.6 164.9,80.7 164.9,73 162,70.2 				"/>
          <polygon style="fill:#2A2A29;" points="162,70.2 164.9,73 172.5,73 175.4,70.2 				"/>
          <polygon style="fill:#474747;" points="175.4,70.2 172.5,73 172.5,80.7 175.4,83.6 				"/>
          <polygon style="fill:#595959;" points="175.4,83.6 172.5,80.7 164.9,80.7 162,83.6 				"/>
        </g>
        <g>
          <polygon style="fill:#373737;" points="162,134.2 164.9,131.3 164.9,123.6 162,120.8 				"/>
          <polygon style="fill:#2A2A29;" points="162,120.8 164.9,123.6 172.5,123.6 175.4,120.8 				"/>
          <polygon style="fill:#474747;" points="175.4,120.8 172.5,123.6 172.5,131.3 175.4,134.2 				"/>
          <polygon style="fill:#595959;" points="175.4,134.2 172.5,131.3 164.9,131.3 162,134.2 				"/>
        </g>
        <g>
          <polygon style="fill:#373737;" points="162,100.5 164.9,97.6 164.9,89.9 162,87.1 				"/>
          <polygon style="fill:#2A2A29;" points="162,87.1 164.9,89.9 172.5,89.9 175.4,87.1 				"/>
          <polygon style="fill:#474747;" points="175.4,87.1 172.5,89.9 172.5,97.6 175.4,100.5 				"/>
          <polygon style="fill:#595959;" points="175.4,100.5 172.5,97.6 164.9,97.6 162,100.5 				"/>
        </g>
        <g>
          <polygon style="fill:#373737;" points="162,117.3 164.9,114.4 164.9,106.7 162,103.9 				"/>
          <polygon style="fill:#2A2A29;" points="162,103.9 164.9,106.7 172.5,106.7 175.4,103.9 				"/>
          <polygon style="fill:#474747;" points="175.4,103.9 172.5,106.7 172.5,114.4 175.4,117.3 				"/>
          <polygon style="fill:#595959;" points="175.4,117.3 172.5,114.4 164.9,114.4 162,117.3 				"/>
        </g>
        <rect x="164.7" y="140.4" width="8" height="8"/>
        <rect x="164.7" y="157.2" width="8" height="8"/>
        <rect x="164.7" y="174.1" width="8" height="8"/>
        <g>
          <polygon style="fill:#373737;" points="162,184.8 164.9,181.9 164.9,174.2 162,171.4 				"/>
          <polygon style="fill:#2A2A29;" points="162,171.4 164.9,174.2 172.5,174.2 175.4,171.4 				"/>
          <polygon style="fill:#474747;" points="175.4,171.4 172.5,174.2 172.5,181.9 175.4,184.8 				"/>
          <polygon style="fill:#595959;" points="175.4,184.8 172.5,181.9 164.9,181.9 162,184.8 				"/>
        </g>
        <g>
          <polygon style="fill:#373737;" points="162,151.1 164.9,148.2 164.9,140.5 162,137.7 				"/>
          <polygon style="fill:#2A2A29;" points="162,137.7 164.9,140.5 172.5,140.5 175.4,137.7 				"/>
          <polygon style="fill:#474747;" points="175.4,137.7 172.5,140.5 172.5,148.2 175.4,151.1 				"/>
          <polygon style="fill:#595959;" points="175.4,151.1 172.5,148.2 164.9,148.2 162,151.1 				"/>
        </g>
        <g>
          <polygon style="fill:#373737;" points="162,167.9 164.9,165 164.9,157.3 162,154.5 				"/>
          <polygon style="fill:#2A2A29;" points="162,154.5 164.9,157.3 172.5,157.3 175.4,154.5 				"/>
          <polygon style="fill:#474747;" points="175.4,154.5 172.5,157.3 172.5,165 175.4,167.9 				"/>
          <polygon style="fill:#595959;" points="175.4,167.9 172.5,165 164.9,165 162,167.9 				"/>
        </g>
      </g>
      <g name="boardPinLeft">
        <rect y="49.5" style="fill:#444444;" width="17.4" height="139.3"/>
        <rect x="4.7" y="56.1" width="8" height="8"/>
        <rect x="4.7" y="72.9" width="8" height="8"/>
        <rect x="4.7" y="89.8" width="8" height="8"/>
        <rect x="4.7" y="106.6" width="8" height="8"/>
        <rect x="4.7" y="123.5" width="8" height="8"/>
        <g>
          <polygon style="fill:#373737;" points="2,66.8 4.9,63.9 4.9,56.2 2,53.4 				"/>
          <polygon style="fill:#2A2A29;" points="2,53.4 4.9,56.2 12.5,56.2 15.4,53.4 				"/>
          <polygon style="fill:#474747;" points="15.4,53.4 12.5,56.2 12.5,63.9 15.4,66.8 				"/>
          <polygon style="fill:#595959;" points="15.4,66.8 12.5,63.9 4.9,63.9 2,66.8 				"/>
        </g>
        <g>
          <polygon style="fill:#373737;" points="2,83.6 4.9,80.7 4.9,73 2,70.2 				"/>
          <polygon style="fill:#2A2A29;" points="2,70.2 4.9,73 12.5,73 15.4,70.2 				"/>
          <polygon style="fill:#474747;" points="15.4,70.2 12.5,73 12.5,80.7 15.4,83.6 				"/>
          <polygon style="fill:#595959;" points="15.4,83.6 12.5,80.7 4.9,80.7 2,83.6 				"/>
        </g>
        <g>
          <polygon style="fill:#373737;" points="2,134.2 4.9,131.3 4.9,123.6 2,120.8 				"/>
          <polygon style="fill:#2A2A29;" points="2,120.8 4.9,123.6 12.5,123.6 15.4,120.8 				"/>
          <polygon style="fill:#474747;" points="15.4,120.8 12.5,123.6 12.5,131.3 15.4,134.2 				"/>
          <polygon style="fill:#595959;" points="15.4,134.2 12.5,131.3 4.9,131.3 2,134.2 				"/>
        </g>
        <g>
          <polygon style="fill:#373737;" points="2,100.5 4.9,97.6 4.9,89.9 2,87.1 				"/>
          <polygon style="fill:#2A2A29;" points="2,87.1 4.9,89.9 12.5,89.9 15.4,87.1 				"/>
          <polygon style="fill:#474747;" points="15.4,87.1 12.5,89.9 12.5,97.6 15.4,100.5 				"/>
          <polygon style="fill:#595959;" points="15.4,100.5 12.5,97.6 4.9,97.6 2,100.5 				"/>
        </g>
        <g>
          <polygon style="fill:#373737;" points="2,117.3 4.9,114.4 4.9,106.7 2,103.9 				"/>
          <polygon style="fill:#2A2A29;" points="2,103.9 4.9,106.7 12.5,106.7 15.4,103.9 				"/>
          <polygon style="fill:#474747;" points="15.4,103.9 12.5,106.7 12.5,114.4 15.4,117.3 				"/>
          <polygon style="fill:#595959;" points="15.4,117.3 12.5,114.4 4.9,114.4 2,117.3 				"/>
        </g>
        <rect x="4.7" y="140.4" width="8" height="8"/>
        <rect x="4.7" y="157.2" width="8" height="8"/>
        <rect x="4.7" y="174.1" width="8" height="8"/>
        <g>
          <polygon style="fill:#373737;" points="2,184.8 4.9,181.9 4.9,174.2 2,171.4 				"/>
          <polygon style="fill:#2A2A29;" points="2,171.4 4.9,174.2 12.5,174.2 15.4,171.4 				"/>
          <polygon style="fill:#474747;" points="15.4,171.4 12.5,174.2 12.5,181.9 15.4,184.8 				"/>
          <polygon style="fill:#595959;" points="15.4,184.8 12.5,181.9 4.9,181.9 2,184.8 				"/>
        </g>
        <g>
          <polygon style="fill:#373737;" points="2,151.1 4.9,148.2 4.9,140.5 2,137.7 				"/>
          <polygon style="fill:#2A2A29;" points="2,137.7 4.9,140.5 12.5,140.5 15.4,137.7 				"/>
          <polygon style="fill:#474747;" points="15.4,137.7 12.5,140.5 12.5,148.2 15.4,151.1 				"/>
          <polygon style="fill:#595959;" points="15.4,151.1 12.5,148.2 4.9,148.2 2,151.1 				"/>
        </g>
        <g>
          <polygon style="fill:#373737;" points="2,167.9 4.9,165 4.9,157.3 2,154.5 				"/>
          <polygon style="fill:#2A2A29;" points="2,154.5 4.9,157.3 12.5,157.3 15.4,154.5 				"/>
          <polygon style="fill:#474747;" points="15.4,154.5 12.5,157.3 12.5,165 15.4,167.9 				"/>
          <polygon style="fill:#595959;" points="15.4,167.9 12.5,165 4.9,165 2,167.9 				"/>
        </g>
      </g>
      <g name="offline">
        <rect x="81.1" y="152.6" style="fill:#373737;" width="9.9" height="10.1"/>
        <rect x="89.8" y="152.6" style="fill:#373737;" width="1.1" height="10.1"/>
        <rect x="81.1" y="152.6" style="fill:#373737;" width="1.4" height="10.1"/>
        <path style="fill:#AAAAAA;" d="M95,163.6H76.9c-0.5,0-1-0.4-1-1v-10.1c0-0.5,0.4-1,1-1H95c0.5,0,1,0.4,1,1v10.1
				C96,163.2,95.6,163.6,95,163.6z M76.9,151.8c-0.4,0-0.8,0.3-0.8,0.8v10.1c0,0.4,0.3,0.8,0.8,0.8H95c0.4,0,0.8-0.3,0.8-0.8v-10.1
				c0-0.4-0.3-0.8-0.8-0.8H76.9z"/>
      </g>
      <g name="deviceId">
        <path name="line" style="fill:#FFFFFF;" d="M123.9,74H53.5v-0.5h70.4V74z"/>
        <path name="title" style="fill:#FFFFFF;" d="M67.8,56.1v-7.2h2.5c0.6,0,1,0,1.3,0.1c0.4,0.1,0.8,0.3,1,0.5c0.4,0.3,0.7,0.7,0.8,1.2
				s0.3,1.1,0.3,1.7c0,0.5-0.1,1-0.2,1.4s-0.3,0.8-0.5,1s-0.4,0.5-0.7,0.6s-0.5,0.3-0.9,0.4s-0.7,0.1-1.1,0.1h-2.5L67.8,56.1
				L67.8,56.1z M68.7,55.2h1.5c0.5,0,0.8,0,1.1-0.1s0.5-0.2,0.6-0.4c0.2-0.2,0.4-0.5,0.5-0.9s0.2-0.8,0.2-1.4c0-0.7-0.1-1.3-0.4-1.7
				s-0.5-0.7-0.9-0.8c-0.3-0.1-0.7-0.1-1.2-0.1h-1.5v5.4H68.7z M78.5,54.4l0.9,0.1c-0.1,0.5-0.4,0.9-0.8,1.2s-0.9,0.4-1.5,0.4
				c-0.8,0-1.4-0.2-1.8-0.7s-0.7-1.1-0.7-2s0.2-1.5,0.7-2s1-0.7,1.7-0.7s1.3,0.2,1.7,0.7s0.7,1.1,0.7,2c0,0.1,0,0.1,0,0.2h-3.9
				c0,0.6,0.2,1,0.5,1.3s0.7,0.5,1.1,0.5c0.3,0,0.6-0.1,0.8-0.3S78.3,54.8,78.5,54.4z M75.6,53h2.9c0-0.4-0.1-0.8-0.3-1
				c-0.3-0.3-0.6-0.5-1.1-0.5c-0.4,0-0.7,0.1-1,0.4S75.6,52.5,75.6,53z M81.9,56.1l-2-5.2h0.9L82,54c0.1,0.3,0.2,0.7,0.3,1
				c0.1-0.3,0.2-0.6,0.3-1l1.2-3.2h0.9l-2,5.2L81.9,56.1L81.9,56.1z M85.5,49.9v-1h0.9v1H85.5z M85.5,56.1v-5.2h0.9v5.2H85.5z
				 M91.1,54.2l0.9,0.1c-0.1,0.6-0.3,1.1-0.7,1.4s-0.9,0.5-1.4,0.5c-0.7,0-1.3-0.2-1.7-0.7s-0.6-1.1-0.6-2c0-0.6,0.1-1,0.3-1.5
				s0.5-0.7,0.8-0.9s0.8-0.3,1.2-0.3c0.6,0,1,0.1,1.4,0.4s0.6,0.7,0.7,1.2l-1,0.2c-0.1-0.3-0.2-0.6-0.4-0.8s-0.5-0.3-0.7-0.3
				c-0.4,0-0.8,0.2-1.1,0.5s-0.4,0.8-0.4,1.5s0.1,1.2,0.4,1.5s0.6,0.5,1,0.5c0.3,0,0.6-0.1,0.9-0.3S91,54.6,91.1,54.2z M96.2,54.4
				l0.9,0.1c-0.1,0.5-0.4,0.9-0.8,1.2s-0.9,0.4-1.5,0.4c-0.8,0-1.4-0.2-1.8-0.7s-0.7-1.1-0.7-2s0.2-1.5,0.7-2s1-0.7,1.7-0.7
				s1.3,0.2,1.7,0.7s0.7,1.1,0.7,2c0,0.1,0,0.1,0,0.2h-3.9c0,0.6,0.2,1,0.5,1.3s0.7,0.5,1.1,0.5c0.3,0,0.6-0.1,0.8-0.3
				S96.1,54.8,96.2,54.4z M93.3,53h2.9c0-0.4-0.1-0.8-0.3-1c-0.3-0.3-0.6-0.5-1.1-0.5c-0.4,0-0.7,0.1-1,0.4S93.4,52.5,93.3,53z
				 M101.3,56.1v-7.2h0.9v7.2H101.3z M103.9,56.1v-7.2h2.5c0.6,0,1,0,1.3,0.1c0.4,0.1,0.8,0.3,1,0.5c0.4,0.3,0.7,0.7,0.8,1.2
				c0.2,0.5,0.3,1.1,0.3,1.7c0,0.5-0.1,1-0.2,1.4s-0.3,0.8-0.5,1s-0.4,0.5-0.7,0.6c-0.2,0.2-0.5,0.3-0.9,0.4
				c-0.3,0.1-0.7,0.1-1.1,0.1h-2.5L103.9,56.1L103.9,56.1z M104.9,55.2h1.5c0.5,0,0.8,0,1.1-0.1c0.3-0.1,0.5-0.2,0.6-0.4
				c0.2-0.2,0.4-0.5,0.5-0.9s0.2-0.8,0.2-1.4c0-0.7-0.1-1.3-0.4-1.7c-0.2-0.4-0.5-0.7-0.9-0.8c-0.3-0.1-0.7-0.1-1.2-0.1h-1.5v5.4
				H104.9z"/>
      </g>
      <g name="rgbledBody">
        <rect x="2.8" y="3.6" style="fill:#EEEEEF;" width="35" height="35"/>
        <path style="fill:#DBDCDC;" d="M38.4,39.1h-36v-36h36V39.1z M3.3,38.1h34v-34h-34C3.3,4.1,3.3,38.1,3.3,38.1z"/>
        <path style="fill:#C8C9CA;" d="M20.4,34.3c-7.3,0-13.2-5.9-13.2-13.2h1c0,6.7,5.5,12.2,12.2,12.2s12.2-5.5,12.2-12.2h1
				C33.6,28.4,27.7,34.3,20.4,34.3z"/>
        <path style="fill:#F7F7F7;" d="M33.6,21.1h-1c0-6.7-5.5-12.2-12.2-12.2S8.2,14.4,8.2,21.1h-1c0-7.3,5.9-13.2,13.2-13.2
				C27.7,7.8,33.6,13.8,33.6,21.1z"/>
        <path style="fill:#DDDDDD;" d="M15.3,29c0-1.5,2.3-2.7,5.1-2.7s5.1,1.2,5.1,2.7s-2.3,2.7-5.1,2.7S15.3,30.5,15.3,29z M17.5,14.2
				c1.9,1.8-0.8,5.4-0.8,6.9c0,1.4,0.4,4.1,3.6,4.1s3.6-2.6,3.6-4.1c0-1.4-2.7-5.1-0.8-6.9c1.9-1.8,2.1-3.8-2.9-3.8
				C15.4,10.4,15.6,12.4,17.5,14.2z M25.6,22.6c-0.4,1.5,0.5,3.4,1.6,4.4s2.8,0.7,3-1.9C30.5,21.2,26,21.4,25.6,22.6z M25.5,19.6
				c0.5,1,1.6,0.2,2.9,0.8c1.1,0.5,2.7,1.5,2.4-0.8c-0.3-2.4-1.8-5.1-3.3-6.4C26,12,24.5,17.5,25.5,19.6z M10.7,25
				c0.2,2.6,1.9,2.9,3,1.9s2-2.9,1.6-4.4C15,21.4,10.5,21.2,10.7,25z M13.4,13.2c-1.5,1.3-3,4-3.3,6.4s1.3,1.4,2.4,0.8
				c1.4-0.6,2.5,0.2,2.9-0.8C16.5,17.5,14.9,12,13.4,13.2z"/>
      </g>
    </g>
    <g name="photocell">
      <g>
        <path style="fill:#CCCCCC;" d="M173.3,21.2c0,7.4-0.7,11.8-0.7,11.8s-1.4,5.7-14.3,5.7C144.6,38.7,144,33,144,33
				s-0.7-4.4-0.7-11.8S144,9.4,144,9.4s0.6-5.7,14.3-5.7c13.5,0,14.3,5.7,14.3,5.7S173.3,13.8,173.3,21.2z"/>
      </g>
      <path style="fill:#B4622B;" d="M171.4,11.8c-0.1-0.6-1.2-5.7-13.1-5.7c-11.8,0-13,5-13.1,5.8c-0.1,0.3-0.6,3.8-0.6,9.4
			s0.5,9.1,0.6,9.4c0.1,0.8,1.3,5.7,13.1,5.7c11.3,0,12.9-5,13.1-5.6v-0.1v-0.1c0-0.1,0.6-3.6,0.6-9.4S171.4,11.9,171.4,11.8z
			 M158.3,7.5c10.9,0,11.6,4.5,11.6,4.5s0,0.1,0,0.2c-1.4,0.2-2.4,1.3-2.4,2.6v12.7c0,0.7-0.6,1.2-1.2,1.2c-0.7,0-1.2-0.5-1.2-1.2
			V14.9c0-1.5-1.2-2.7-2.8-2.7c-1.5,0-2.8,1.2-2.8,2.7v12.7c0,0.7-0.6,1.2-1.2,1.2c-0.7,0-1.2-0.5-1.2-1.2V14.9
			c0-1.5-1.2-2.7-2.8-2.7c-1.5,0-2.8,1.2-2.8,2.7v12.7c0,0.7-0.6,1.2-1.2,1.2s-1.2-0.5-1.2-1.2V14.9c0-1.4-1.1-2.5-2.4-2.6
			c0-0.1,0-0.2,0-0.2S147.2,7.5,158.3,7.5z M169.9,30.4c0,0-1.1,4.5-11.6,4.5c-11.1,0-11.6-4.5-11.6-4.5s-0.5-3.4-0.5-9.2
			c0-3.4,0.2-5.9,0.3-7.5c0.6,0.1,1,0.6,1,1.2v12.7c0,1.5,1.2,2.7,2.8,2.7c1.5,0,2.8-1.2,2.8-2.7V14.9c0-0.7,0.6-1.2,1.2-1.2
			c0.7,0,1.2,0.5,1.2,1.2v12.7c0,1.5,1.2,2.7,2.8,2.7c1.5,0,2.8-1.2,2.8-2.7V14.9c0-0.7,0.6-1.2,1.2-1.2c0.7,0,1.2,0.5,1.2,1.2v12.7
			c0,1.5,1.2,2.7,2.8,2.7c1.5,0,2.8-1.2,2.8-2.7V14.9c0-0.6,0.5-1.1,1-1.2c0.2,1.6,0.3,4.1,0.3,7.5C170.4,27,169.9,30.4,169.9,30.4z
			"/>
      <path style="opacity:0.5;fill:#FFFFFF;enable-background:new    ;" d="M161.6,6.7c0.6-1.4,2.7-1.9,4.8-1.1s3.3,2.7,2.8,4.1
			c-0.6,1.4-2.7,1.9-4.8,1.1C162.3,9.9,161,8.1,161.6,6.7z M149.5,36.1c1.6,0.6,3.3,0.3,3.7-0.8s-0.5-2.5-2.1-3.1
			c-1.6-0.6-3.3-0.3-3.7,0.8C146.9,34,147.9,35.4,149.5,36.1z"/>
    </g>
    <g name="rgbled">

      <radialGradient id="lightColor_1_" cx="20.4" cy="-164.2" r="19.7" gradientTransform="matrix(1 0 0 1 0 186)" gradientUnits="userSpaceOnUse">
        <stop offset="0.431" style="stop-color:#FF0000"/>
        <stop offset="1" style="stop-color:#FF0000;stop-opacity:0"/>
      </radialGradient>

      <circle name="lightColor" style="fill:url(#lightColor_1_);enable-background:new    ;" cx="20.4" cy="21.8" r="19.7"/>
      <path name="color" style="fill:#FF0000;enable-background:new    ;" d="M15.3,29c0-1.5,2.3-2.7,5.1-2.7
			s5.1,1.2,5.1,2.7s-2.3,2.7-5.1,2.7S15.3,30.5,15.3,29z M17.5,14.2c1.9,1.8-0.8,5.4-0.8,6.9c0,1.4,0.4,4.1,3.6,4.1s3.6-2.6,3.6-4.1
			c0-1.4-2.7-5.1-0.8-6.9c1.9-1.8,2.1-3.8-2.9-3.8C15.4,10.4,15.6,12.4,17.5,14.2z M25.6,22.6c-0.4,1.5,0.5,3.4,1.6,4.4
			s2.8,0.7,3-1.9C30.5,21.2,26,21.4,25.6,22.6z M25.5,19.6c0.5,1,1.6,0.2,2.9,0.8c1.1,0.5,2.7,1.5,2.4-0.8c-0.3-2.4-1.8-5.1-3.3-6.4
			C26,12,24.5,17.5,25.5,19.6z M10.7,25c0.2,2.6,1.9,2.9,3,1.9s2-2.9,1.6-4.4C15,21.4,10.5,21.2,10.7,25z M13.4,13.2
			c-1.5,1.3-3,4-3.3,6.4s1.3,1.4,2.4,0.8c1.4-0.6,2.5,0.2,2.9-0.8C16.5,17.5,14.9,12,13.4,13.2z"/>
    </g>
    <g name="online">
      <g name="inlineLight">
        <rect x="81.1" y="152.6" style="fill:#3EFF62;" width="9.9" height="10.1"/>
      </g>
      <g name="text">
        <path style="fill:#FFFFFF;" d="M73,170.1c0,0.9-0.2,1.6-0.7,2.1s-1.1,0.7-2,0.7s-1.5-0.2-2-0.7s-0.7-1.2-0.7-2.1s0.2-1.6,0.7-2.1
				s1.1-0.7,2-0.7s1.5,0.2,2,0.7S73,169.2,73,170.1z M68.9,170.1c0,0.6,0.1,1.1,0.4,1.4c0.2,0.3,0.6,0.5,1.1,0.5
				c0.9,0,1.4-0.6,1.4-1.9c0-1.2-0.5-1.9-1.4-1.9c-0.5,0-0.8,0.2-1.1,0.5C69.1,169,68.9,169.5,68.9,170.1z"/>
        <path style="fill:#FFFFFF;" d="M79.4,172.9h-1.5l-2.4-4.2l0,0c0,0.7,0.1,1.3,0.1,1.6v2.6h-1.1v-5.5H76l2.4,4.2l0,0
				c0-0.7-0.1-1.2-0.1-1.5v-2.6h1.1V172.9L79.4,172.9z"/>
        <path style="fill:#FFFFFF;" d="M80.8,171.3v-0.9h2v0.9H80.8z"/>
        <path style="fill:#FFFFFF;" d="M84.1,172.9v-5.5h1.2v4.6h2.2v1h-3.4C84.1,173,84.1,172.9,84.1,172.9z"/>
        <path style="fill:#FFFFFF;" d="M91,172.9h-2.5v-0.7l0.7-0.3v-3.6l-0.7-0.3v-0.7H91v0.7l-0.7,0.3v3.6l0.7,0.3V172.9z"/>
        <path style="fill:#FFFFFF;" d="M97.2,172.9h-1.5l-2.4-4.2l0,0c0,0.7,0.1,1.3,0.1,1.6v2.6h-1.1v-5.5h1.5l2.4,4.2l0,0
				c0-0.7-0.1-1.2-0.1-1.5v-2.6h1.1V172.9L97.2,172.9z"/>
        <path style="fill:#FFFFFF;" d="M102.2,172.9H99v-5.5h3.2v1h-2v1.2h1.9v1h-1.9v1.4h2V172.9z"/>
      </g>
    </g>
    <g name="select" style="opacity:0;">
      <path name="selectPath" style="fill:#FFFFFF;" d="M177.4,0H0v211.7h18.1v1.4c0,0.5,0.4,0.9,0.9,0.9h14.4v3.1c0,0.5,0.4,0.9,0.9,0.9
			h18.5c0.5,0,0.9-0.4,0.9-0.9V214h14.4c0.5,0,0.9-0.4,0.9-0.9v-1.4h9.5v5.6c0,0.4,0.3,0.6,0.6,0.6h49.6c0.3,0,0.6-0.3,0.6-0.6v-5.6
			h48.3V0H177.4z"/>
    </g>
    <g name="pinGroup" style="opacity:0;">
      <rect name="pin-rst" x="164.7" y="56.1" style="fill:#FF0000;" width="8" height="8"/>
      <rect name="pin-ad" x="164.7" y="72.9" style="fill:#FF0000;" width="8" height="8"/>
      <rect name="pin-3v3" x="164.7" y="89.8" style="fill:#FF0000;" width="8" height="8"/>
      <rect name="pin-d-16" x="164.7" y="106.6" style="fill:#FF0000;" width="8" height="8"/>
      <rect name="pin-d-14" x="164.7" y="123.5" style="fill:#FF0000;" width="8" height="8"/>
      <rect name="pin-d-12" x="164.7" y="140.4" style="fill:#FF0000;" width="8" height="8"/>
      <rect name="pin-d-13" x="164.7" y="157.2" style="fill:#FF0000;" width="8" height="8"/>
      <rect name="pin-vcc" x="164.7" y="174.1" style="fill:#FF0000;" width="8" height="8"/>
      <rect name="pin-tx" x="4.7" y="56.1" style="fill:#FF0000;" width="8" height="8"/>
      <rect name="pin-rx" x="4.7" y="72.9" style="fill:#FF0000;" width="8" height="8"/>
      <rect name="pin-d-5" x="4.7" y="89.8" style="fill:#FF0000;" width="8" height="8"/>
      <rect name="pin-d-4" x="4.7" y="106.6" style="fill:#FF0000;" width="8" height="8"/>
      <rect name="pin-d-0" x="4.7" y="123.5" style="fill:#FF0000;" width="8" height="8"/>
      <rect name="pin-d-2" x="4.7" y="140.4" style="fill:#FF0000;" width="8" height="8"/>
      <rect name="pin-d-15" x="4.7" y="157.2" style="fill:#FF0000;" width="8" height="8"/>
      <rect name="pin-gnd" x="4.7" y="174.1" style="fill:#FF0000;" width="8" height="8"/>
    </g>
    <g name="property">
      <text name="deviceId" transform="matrix(1 0 0 1 75.3449 71.4871)" style="fill:#FFFFFF; font-family:'ArialMT'; font-size:12px;">1234</text>
    </g>
    <g name="button">
      <path name="buttonBtn" d="M52.7,217.9H34.2c-0.5,0-0.9-0.4-0.9-0.9v-6.9c0-0.5,0.4-0.9,0.9-0.9h18.5c0.5,0,0.9,0.4,0.9,0.9v6.9
			C53.6,217.5,53.2,217.9,52.7,217.9z"/>
      <g name="buttonBody">
        <path style="fill:#9D9D9E;" d="M68.8,210.4v2.7c0,0.5-0.4,0.9-0.9,0.9h-49c-0.5,0-0.9-0.4-0.9-0.9v-2.7"/>
        <path style="fill:#E2DEC5;" d="M18.1,211.5v-12c0-0.5,0.4-0.9,0.9-0.9h49c0.5,0,0.9,0.4,0.9,0.9v12"/>
      </g>
    </g>
  </g>
</svg>
